<svg width="139" height="137" fill="none" xmlns="http://www.w3.org/2000/svg"><path fill-rule="evenodd" clip-rule="evenodd" d="M76.368 26.562l7.191 1.061c1.515.224 2.77 1.266 3.243 2.693a3.905 3.905 0 01-1.008 4.046l-5.181 5 1.192 7.028a3.923 3.923 0 01-1.612 3.853 4.113 4.113 0 01-4.239.311L69.5 47.272l-6.454 3.282a4.112 4.112 0 01-4.24-.31 3.924 3.924 0 01-1.61-3.854l1.191-7.029-5.18-5a3.905 3.905 0 01-1.009-4.045c.473-1.427 1.729-2.47 3.243-2.693l7.19-1.06 3.253-6.373A4.053 4.053 0 0169.5 18c1.531 0 2.931.848 3.616 2.19l3.252 6.372zM72.431 39.43c-.186-.904-.567-2.744 1.013-4.269l.915-.883a2.92 2.92 0 00-.456-.071c-.935-.106-2.837-.32-3.828-2.262l-.575-1.127c-.066.091-.138.246-.229.44-.401.86-1.166 2.496-3.337 2.828l-1.294.192c.16.172.332.331.509.495.53.49 1.092 1.01 1.415 1.984.325.974.182 1.72.047 2.426a8.45 8.45 0 00-.114.692l1.14-.58a4.117 4.117 0 013.726 0l1.14.58c0-.095-.03-.248-.072-.445z" fill="#fff" fill-opacity=".3"/><path fill-rule="evenodd" clip-rule="evenodd" d="M133.986 8.027H113.6c.032-1.327.05-2.665.05-4.013A4.014 4.014 0 00109.637 0H29.363a4.014 4.014 0 00-4.013 4.014c0 1.348.018 2.686.05 4.013H5.014A4.014 4.014 0 001 12.041v10.166c0 22.457 17.824 40.855 40.154 41.959 4.653 6.346 10.135 10.939 16.236 13.562-.544 10.855-4.205 19.646-7.314 25.271-3.7 6.693-7.465 10.528-7.496 10.559v.001a4.044 4.044 0 00-1.176 2.837v12.577h-4.013a4.014 4.014 0 100 8.027h64.218a4.014 4.014 0 100-8.027h-4.013v-12.577c0-1.018-.408-2.07-1.176-2.837v-.001c-.143-.143-13.731-13.981-14.811-35.83 6.101-2.623 11.584-7.216 16.237-13.563C120.176 63.062 138 44.665 138 22.207V12.041a4.014 4.014 0 00-4.014-4.014zM9.027 22.207v-6.152h16.778c1.035 13.41 3.977 27.412 10 39.319C20.5 51.981 9.026 38.4 9.026 22.207zm40.405 98.203v8.563h40.136v-8.563H49.432zm26.871-49.257a4.014 4.014 0 00-2.79 3.823c0 17.015 6.702 30.022 11.752 37.407h-31.53c5.05-7.385 11.751-20.392 11.751-37.407a4.014 4.014 0 00-2.79-3.823c-9.517-3.047-16.211-11.894-20.512-21-5.33-11.283-8.335-25.78-8.756-42.126h72.144c-.421 16.347-3.426 30.843-8.756 42.125-4.258 9.016-10.939 17.936-20.513 21.001zm26.892-15.779c15.304-3.393 26.778-16.974 26.778-33.167v-6.153h-16.778c-1.034 13.411-3.978 27.413-10 39.32z" fill="#fff" fill-opacity=".3"/></svg>