<svg width="32" height="32" fill="none" xmlns="http://www.w3.org/2000/svg"><path fill-rule="evenodd" clip-rule="evenodd" d="M15.952 0C7.156 0 0 7.253 0 16.048 0 24.844 7.156 32 15.952 32 24.747 32 32 24.844 32 16.048 32 7.253 24.747 0 15.952 0z" fill="#FF80AA"/><path fill-rule="evenodd" clip-rule="evenodd" d="M32 16.048C32 7.253 24.77 0 16 0v32c8.77 0 16-7.156 16-15.952z" fill="#F37"/><path fill-rule="evenodd" clip-rule="evenodd" d="M21 14.07L18.93 12 16 14.93 13.07 12 11 14.07 13.93 17 11 19.93 13.07 22 16 19.07 18.93 22 21 19.93 18.07 17 21 14.07z" fill="#F0F7FF"/><path fill-rule="evenodd" clip-rule="evenodd" d="M21 19.93L18.07 17 21 14.07 18.93 12 16 14.93v4.14L18.93 22 21 19.93z" fill="#DFE7F4"/></svg>