<svg width="228" height="235" fill="none" xmlns="http://www.w3.org/2000/svg"><path fill-rule="evenodd" clip-rule="evenodd" d="M182.089 46.983c9.225 0 18.982-4.254 26.078-11.774 7.397-7.838 12.379-18.981 14.807-33.116a1.79 1.79 0 00-1.939-2.084l-20.296 2.035c-8.21.823-18.428 1.849-26.354 7.242-8.081 5.499-12.984 15.5-12.522 25.267-2.394.646-4.519 1.989-6.221 3.066a2386.62 2386.62 0 01-16.298 10.207l-.194.12-.007.005-.002.001c-4.71 2.934-9.575 5.964-14.622 9.152A54.804 54.804 0 00123.62 53c-.981-3.798-2.814-9.15-7.39-11.765-4.476-2.56-10.765-1.603-14.957 2.273-3.43 3.173-5.528 8.045-5.906 13.72-.23 3.445.148 6.83.694 10.145l-.085-.08-.002-.002a8.815 8.815 0 00-.176-.165c-4.234-3.8-9.184-5.422-13.584-4.45-4.284.947-8.047 4.418-10.07 9.285-1.54 3.71-1.973 7.72-2.25 11.396-1.336-.453-2.707-.667-4.086-.599-3.84.192-7.66 2.602-10.22 6.444-2.14 3.21-3.239 6.985-4.196 10.345a9.972 9.972 0 00-.928-.045h-.044c-3.909.018-6.98 2.456-8.43 6.688-1.16 3.385-.955 7.822.348 11.718-16.364 12.925-30.56 29.225-41.092 47.22a1.788 1.788 0 002.36 2.494 604.076 604.076 0 0049.846-28.898 14.527 14.527 0 004.07 5.66c.055.047.116.084.177.124-1.39 1.266-2.607 2.702-3.51 4.408-2.366 4.467-2.017 9.67-1.505 14.195 1.184 10.427 3.876 25.504 13.584 36.027 4.322 4.683 9.911 8.304 16.282 10.667L82 225.313v.004c-.055 1.563-.13 3.7.925 5.549 2.147 3.754 7.261 3.792 9.449 3.808h.003l45.724.324c.127.002.256.002.383.002 2.897 0 6.084-.271 8.189-2.643 2.127-2.397 1.991-5.683 1.699-8.575l-2.428-23.961a1.783 1.783 0 00-.179-.602c4.236-2.628 8.23-5.895 11.194-10.205 2.505-3.64 3.991-8.043 4.186-12.395.195-4.374-.906-8.31-3.185-11.458 3.627-5.77 5.426-12.902 4.977-20.02-.317-5.034-1.736-9.531-4.103-13.004a23.767 23.767 0 00-.562-.79c.043-.083.08-.169.111-.26 1.641-4.993 1.758-10.722.347-17.029-1.189-5.316-3.281-10.345-5.335-15.21 1.311-1.199 1.937-2.698 2.696-4.525l.115-.274c2.168-5.208 4.33-10.418 6.493-15.628l.016-.038 3.162-7.617c1.502-3.612 2.758-7.155 1.681-10.786-.593-1.992-1.911-3.733-3.663-5.02l11.459-8.787c2.181.543 4.44.81 6.735.81zm19.007-41.378l17.929-1.797c-2.43 12.323-6.952 22.053-13.454 28.943a34.89 34.89 0 01-3.287 3.064c-2.123-.607-3.884-2.352-4.5-4.478-.627-2.166-.045-4.633 1.484-6.288.342-.37.746-.723 1.174-1.095l.011-.01c.57-.497 1.158-1.011 1.699-1.645 1.429-1.682 1.905-3.699 1.273-5.393-1.133-3.034-4.948-3.574-7.963-2.543-.428.146-.858.31-1.291.477-1.446.558-2.812 1.083-3.881.737-1.3-.421-1.953-2.232-1.812-3.668.168-1.703 1.119-3.401 2.052-4.941 3.557-.655 7.155-1.02 10.566-1.363zM185.911 8.02c-3.378.936-6.622 2.255-9.519 4.226-7.032 4.785-11.314 13.463-10.968 21.965l.022.001.015.001.016.001.028.001.053.005c4.887.507 8.049 4.74 10.093 8.333 7.412 2.051 16.021.346 23.305-4.322-2.187-1.311-3.892-3.44-4.604-5.897-.969-3.346-.068-7.16 2.295-9.714.471-.511.968-.945 1.45-1.365.496-.432.963-.84 1.334-1.276.542-.639.809-1.388.646-1.822-.295-.794-2.103-.871-3.46-.407-.358.122-.719.26-1.083.4h-.001l-.082.032-.004.002c-1.87.718-3.988 1.532-6.255.798-2.409-.78-4.649-3.58-4.269-7.425.123-1.258.503-2.44.988-3.537zm-86.98 49.443c.317-4.755 2.009-8.778 4.766-11.328 3.029-2.8 7.655-3.571 10.761-1.794 2.588 1.48 4.402 4.516 5.702 9.554 1.378 5.334 1.75 9.875 1.142 13.886-.725 4.784-2.994 8.974-6.223 11.498-3.477 2.718-8.174 3.426-11.771 1.806-.378-3.111-1.5-6.166-3.249-8.93a1.78 1.78 0 00.261-1.303c-.829-4.4-1.684-8.948-1.389-13.389zM73.355 85.035v.015a.312.312 0 01-.009.05l-.003.016-.002.008-.001.009c2.29 1.619 4.363 4.01 6.02 7.051.546.999.992 1.962 1.343 2.894.106.048.206.106.302.178 3.638 2.653 9.134 2.592 13.07-.147 3.764-2.622 6.038-7.518 5.789-12.472-.237-4.7-2.587-9.382-6.45-12.85-3.316-2.976-7.215-4.33-10.432-3.618-3.145.694-5.963 3.373-7.539 7.165-1.52 3.658-1.821 7.93-2.088 11.701zM58.56 91.188c1.935-2.905 4.712-4.721 7.427-4.858 4.383-.218 8.162 3.767 10.239 7.572 1.634 2.994 2.196 5.468 1.718 7.562-.712 3.124-3.7 5.13-6.26 5.965-2.854.933-5.994.951-9.084.875-1.43-3.496-4.41-6.407-7.753-7.84.92-3.229 1.892-6.544 3.713-9.276zm-8.123 11.89c-2.395.011-4.101 1.449-5.068 4.273-1.305 3.808-.34 9.583 2.195 13.145 1.599 2.248 3.579 3.391 5.881 3.394h.01c2.548 0 5.183-2.003 6.268-4.767.998-2.539.904-5.752-.26-9.049-1.34-3.799-5.458-6.996-8.999-6.996h-.027zm9.388 38.569a10.912 10.912 0 01-3.304-4.92 591.02 591.02 0 004.418-2.917 9.395 9.395 0 013.482 6.026l-.278.16c-1.278.756-2.567 1.545-3.797 2.409a1.759 1.759 0 00-.52-.758zm86.139-18.714c.002-.004.002-.007.003-.013 2.827-5.848 1.957-13.429-1.983-18.589-1.576 5.329-1.441 12.762.408 18.1.544.161 1.065.33 1.572.502zm-5.6-1.496a63.87 63.87 0 00-5.664-.885l-.001-.006c-.016-.086-.032-.174-.062-.26-1.94-5.721-1.344-12.285 1.595-17.563.507.079 1.012.142 1.508.17a20.896 20.896 0 002.957-.025c-1.711 5.413-1.83 12.667-.333 18.569zm-14.367-.925c1.533-.315 3.153-.371 4.882-.29-1.709-6.076-1.047-12.816 1.814-18.44a15.546 15.546 0 01-3.206-1.689c-3.71 5.705-5.017 12.973-3.482 19.607.066.276.053.552-.008.812zm-1.111-26.402a10.998 10.998 0 001.933 3.532 28.281 28.281 0 00-2.759 5.117 24.232 24.232 0 01-5.39-11.91 1.79 1.79 0 00-.17-.517 623.095 623.095 0 006.493-5.615c-.075.344-.147.687-.215 1.033-.453 2.345-.85 5.414.108 8.36zm-2.43 12.222c-3.521-3.69-5.981-8.398-7.033-13.393a743.69 743.69 0 01-3.629 3.028 45.092 45.092 0 003.46 20.147c.05.119.086.241.11.361a278.214 278.214 0 016.444-2.096c-.023-2.62.31-5.245.972-7.783a1.8 1.8 0 01-.324-.264zm-14.309-7.37a48.729 48.729 0 003.819 18.549c.018.043.043.082.064.124a271.366 271.366 0 00-5.936 2.183c-.228-5.333-2.03-10.642-5.11-14.995a.3.3 0 00-.033-.038l-.026-.029a587.436 587.436 0 007.222-5.794zm-5.605 21.385a24.676 24.676 0 00-4.425-13.386 603.658 603.658 0 01-4.673 3.613c0 .018 0 .036.002.055v.001a1.208 1.208 0 010 .097 31.52 31.52 0 001.668 13.237c.032.091.05.182.066.274a278.745 278.745 0 017.564-3.123 1.76 1.76 0 01-.202-.768zm-12.79-6.969a35.14 35.14 0 001.993 11.781c.063.174.149.33.254.472a267.91 267.91 0 00-6.292 2.896 19.739 19.739 0 00-3.862-9.289 612.628 612.628 0 007.908-5.86zm-7.468 16.768a16.152 16.152 0 00-3.334-8.814 578.832 578.832 0 01-6.366 4.521 20.267 20.267 0 013.491 7.498 273.395 273.395 0 016.214-3.168v-.004l-.002-.008a.144.144 0 01-.003-.025zm-12.634-2.249a16.655 16.655 0 013.144 7.208c-1.713.93-3.421 1.872-5.115 2.84a13.089 13.089 0 00-3.666-6.198 592.186 592.186 0 005.637-3.85zm15.92 97.543c-.053 1.521-.053 2.756.457 3.647.997 1.748 3.931 1.992 6.375 2.008l1.549.011a42.406 42.406 0 01-1.637-18.774 52.018 52.018 0 01-6.23-1.369l-.513 14.477zm48.689-20.378a57.847 57.847 0 011.198 25.934c-.025.137-.03.273-.025.406l-4.896-.036a1.678 1.678 0 00-.063-.457c-.921-3.19-.913-6.613-.904-10.236v-.005c.013-4.373.018-8.879-1.733-13.022a122.468 122.468 0 006.423-2.584zm-8.262 15.597c.011-4.266.018-8.311-1.536-11.828a95.916 95.916 0 01-4.063 1.253c2.599 6.965 1.403 15.179-2.931 21.189l9.431.068c-.908-3.513-.911-7.154-.901-10.682zm-9.049-9.679c.02.092.039.182.073.271 2.469 6.514.978 14.343-3.714 19.487a1.813 1.813 0 00-.316.504l-4.937-.036c1.939-6.067 1.414-12.796-1.391-18.495 3.335-.309 6.758-.888 10.285-1.731zm-12.44 19.6c2.001-5.787 1.337-12.347-1.766-17.62-.632.02-1.262.032-1.888.032h-.038a55.9 55.9 0 01-4.955-.224 38.811 38.811 0 001.742 18.004c.04.119.068.241.084.361l6.729.048a1.769 1.769 0 01.092-.601zm40.308-6.436c.226 2.232.351 4.523-.814 5.836-1.047 1.181-3.038 1.407-4.993 1.438a61.442 61.442 0 00-1.454-27.84 94.56 94.56 0 004.929-2.459l2.332 23.025zm-9.332-23.548c6.638-3.057 14.032-7.064 18.532-13.612 3.491-5.075 5.042-13 1.701-18.728-5.102 6.176-12.632 10.081-20.298 10.474-.431.021-.862.032-1.294.032-7.9 0-15.503-3.69-20.083-9.823-3.446-4.617-5.198-10.702-5.105-17.207l-10.763 4.938-.005.002c-.53.243-1.517.695-2.616.695a3.434 3.434 0 01-1.767-.468c-1.061-.619-1.53-1.685-1.812-2.323l-.002-.004-4.432-10.071a1.791 1.791 0 01.915-2.359 1.785 1.785 0 012.354.916l4.432 10.071c.072.163.23.52.339.661.12-.001.415-.057 1.104-.373l12.555-5.76c.206-1.583.509-3.177.931-4.769 1.346-5.076 3.731-10.345 7.088-15.658 1.847-2.926 3.786-4.703 5.88-5.741a1.791 1.791 0 01-.614-.982 27.288 27.288 0 01-.442-2.462 270.45 270.45 0 00-56.123 25.035c-3.554 2.099-6.887 4.254-8.613 7.512-.743 1.4-1.139 2.956-1.323 4.572l21.067-9.158a1.789 1.789 0 011.421 3.282l-22.586 9.818c.059 1.223.178 2.437.311 3.6.184 1.636.394 3.185.623 4.673l25.674-10.801a1.781 1.781 0 012.357 1.003l4.707 12.147a9.12 9.12 0 011.922-.054c3.41.272 5.998 2.447 6.759 5.678.81 3.451-.989 7.353-4.188 9.076a8.343 8.343 0 01-3.942.971c-1.846 0-3.679-.586-5.1-1.724-2.616-2.096-3.608-5.824-2.36-8.863.688-1.674 1.948-3.039 3.516-3.944l-3.981-10.279L57.477 171c.89 4.684 1.987 8.576 3.19 11.832l14.024-5.169a1.785 1.785 0 012.249.95l7.066 15.86a1.787 1.787 0 11-3.262 1.458l-6.386-14.333-12.34 4.547c2.281 5.079 4.778 8.291 6.875 10.562 4.003 4.339 9.221 7.683 15.186 9.849a1.77 1.77 0 01.629-.476l29.666-13.151-2.736-5.746a7.079 7.079 0 01-1.135.097c-2.71 0-5.435-1.513-6.697-3.989v-.002c-1.311-2.569-1.253-5.117.161-7.173 1.495-2.175 4.28-3.385 7.096-3.079 2.723.292 4.888 1.937 5.939 4.511 1.149 2.815.163 6.195-2.118 8.136l3.505 7.366a1.788 1.788 0 01-.89 2.406l-28.414 12.598a50.61 50.61 0 0011.733 1.359h.036c9.42 0 19.583-2.364 30.965-7.2l-7.298-14.705a1.791 1.791 0 01.805-2.399 1.784 1.784 0 012.394.807l7.374 14.856c.13-.06.259-.115.39-.176zm-23.724-17.135c-1.663.696-3.937-.159-4.773-1.798-.485-.952-.891-2.334-.077-3.518.738-1.074 2.286-1.712 3.77-1.551.809.086 2.277.502 3.015 2.308.671 1.644-.268 3.86-1.935 4.559zm-16.96-7.288c-.574-2.435-2.682-2.861-3.563-2.931-1.94-.16-4.37.801-5.244 2.931-.637 1.551-.072 3.618 1.287 4.706 1.363 1.092 3.516 1.259 5.118.397 1.793-.965 2.849-3.206 2.401-5.103zm64.571-30.806c.464 7.33-1.721 14.659-5.99 20.106-4.476 5.71-11.259 9.33-18.144 9.683-7.073.359-14.272-2.92-18.334-8.36-4.332-5.804-5.559-14.397-3.28-22.99 1.254-4.725 3.491-9.657 6.653-14.661 3.496-5.535 6.792-5.805 13.482-5.099 7.641.805 17.061 2.682 22.126 10.11 2.005 2.941 3.211 6.817 3.487 11.211zm-10.083-21.113c2.655 1.228 4.648 2.612 6.186 4.002.95-3.97.875-8.473-.23-13.415-1.088-4.869-3.038-9.611-4.975-14.208-1.28.473-2.511.866-3.704 1.192 4.974 6.207 6.105 15.198 2.723 22.429zm13.291-54.863l-3.163 7.62c-2.167 5.22-4.335 10.442-6.508 15.661l-.116.278-.001.003c-1.104 2.656-1.438 3.46-3.607 4.27-4.312 1.61-7.987 2.296-11.23 2.099-3.741-.228-8.364-2.302-9.67-6.322-.706-2.164-.369-4.649.001-6.57 2.179-11.275 9.383-21.475 19.274-27.284 3.376-1.982 6.325-2.952 8.99-2.952.199 0 .398.005.593.016 2.812.156 6.117 1.852 6.991 4.792.745 2.503-.31 5.397-1.554 8.39zm-5.24-16.753c1.037.056 2.041.248 2.997.544l12.01-9.209c-1.63-2.79-3.986-5.864-7.157-6.194-2.479-.259-4.921 1.145-7.637 2.865-5.64 3.573-11.039 6.933-16.259 10.182l-.062.04a2327.724 2327.724 0 00-16.197 10.143c.215 2.595.149 5.019-.198 7.31-.861 5.678-3.617 10.7-7.559 13.78-2.866 2.241-6.407 3.414-9.837 3.414a14.01 14.01 0 01-4.055-.588c-.451 5.282-3.152 10.255-7.272 13.124-2.597 1.807-5.728 2.714-8.815 2.714-1.94 0-3.861-.364-5.623-1.08.023.885-.057 1.744-.247 2.577-.875 3.832-4.184 7.117-8.634 8.571-2.714.887-5.56 1.077-8.271 1.079a37.155 37.155 0 01-.87-.011c.584 3.062.385 6.015-.603 8.533-1.63 4.147-5.572 7.037-9.594 7.037h-.016c-3.473-.006-6.511-1.7-8.785-4.895a15.55 15.55 0 01-.815-1.293C29.8 132.5 17.418 146.258 7.698 161.437c42.768-22.723 82.87-50.71 119.288-83.255 3.602-9.167 10.272-17.131 18.765-22.121 4.253-2.5 8.043-3.616 11.588-3.423z" fill="#D4CDCC"/><path fill-rule="evenodd" clip-rule="evenodd" d="M225.086 59.919c.855 2.613 1.738 5.313 1.892 8.23.183 3.487-.796 6.596-2.758 8.758-1.743 1.921-4.279 3.017-7.139 3.09l-.299.003c-3.192 0-6.365-1.274-8.543-3.445-6.775-6.742-3.939-15.499-1.659-22.536l.046-.144c.186-.575.369-1.143.545-1.703.689-2.19 1.211-4.467 1.715-6.67l.004-.015c.953-4.147 1.937-8.434 4.085-12.52a1.814 1.814 0 013.283.164c2.381 5.903 4.288 12.136 6.131 18.166l.031.101c.859 2.81 1.746 5.712 2.663 8.514l.003.007zM216.99 76.4c1.859-.047 3.473-.723 4.545-1.903 1.292-1.426 1.96-3.67 1.829-6.16-.13-2.446-.939-4.92-1.722-7.313-.928-2.835-1.821-5.753-2.685-8.578l-.032-.103-.031-.103c-1.381-4.517-2.797-9.15-4.417-13.633-.863 2.475-1.451 5.036-2.06 7.695l-.012.052c-.519 2.254-1.054 4.582-1.78 6.89-.194.618-.395 1.244-.602 1.877v.002c-2.182 6.737-4.436 13.702.776 18.889v.002c1.536 1.528 3.899 2.442 6.191 2.386z" fill="#D4CDCC"/></svg>