<svg width="111" height="111" fill="none" xmlns="http://www.w3.org/2000/svg"><path fill-rule="evenodd" clip-rule="evenodd" d="M38.277 50h35.446c3.43.03 6.238-2.757 6.277-6.232V30.682c.005-6.482-2.669-12.67-7.374-17.064a24.312 24.312 0 00-18.262-6.566C41.738 7.973 31.968 18.631 32 31.45v12.318c.038 3.475 2.846 6.262 6.277 6.231zm35.446-3.74H38.277c-1.392.033-2.548-1.081-2.585-2.492v-4.986H46.77a1.84 1.84 0 001.537-.832l1.744-2.653 2.389 6.05c.252.65.843 1.104 1.53 1.174h.184a1.84 1.84 0 001.537-.832l3.144-4.776h17.474v6.855c-.037 1.41-1.193 2.525-2.585 2.492zM55.96 10.74c-.452 0-.904.015-1.357.047-10.685.786-18.948 9.814-18.912 20.663v3.594h10.09l3.144-4.776a1.861 1.861 0 011.727-.824 1.85 1.85 0 011.524 1.165l2.388 6.05 1.745-2.652c.343-.52.919-.833 1.536-.832h18.462v-2.492c-.001-5.447-2.25-10.644-6.206-14.334a20.584 20.584 0 00-14.14-5.61z" fill="#D8D8D8"/><path d="M41 57h2a2.001 2.001 0 000-4h-2a2 2 0 000 4zm0 8h2a2 2 0 000-4h-2a2 2 0 000 4z" fill="#D8D8D8"/><path fill-rule="evenodd" clip-rule="evenodd" d="M35.714 69.063A7.397 7.397 0 0139.5 68a7.5 7.5 0 017.5 7.5 7.401 7.401 0 01-1.063 3.785l.514.514a1.874 1.874 0 01-2.652 2.652l-.514-.514A7.401 7.401 0 0139.5 83a7.5 7.5 0 01-7.5-7.5 7.397 7.397 0 011.063-3.786l-.514-.513a1.876 1.876 0 012.652-2.652l.513.514zm1.133 3.79A3.738 3.738 0 0035.75 75.5a3.75 3.75 0 006.397 2.653 3.75 3.75 0 00-5.3-5.3zM76.334 79h-3.667A3.667 3.667 0 0169 75.333v-3.666A3.667 3.667 0 0172.667 68h3.667A3.666 3.666 0 0180 71.667v3.666A3.666 3.666 0 0176.334 79zm0-7.333h-3.667v3.666h3.667v-3.666z" fill="#D8D8D8"/><path d="M62 72h2a2 2 0 000-4h-2a2 2 0 000 4zm0 8h2a2 2 0 000-4h-2a2 2 0 000 4z" fill="#D8D8D8"/><path fill-rule="evenodd" clip-rule="evenodd" d="M54 22.5a5.5 5.5 0 11-11 0 5.5 5.5 0 0111 0zm-3.667 0a1.833 1.833 0 10-3.666 0 1.833 1.833 0 003.666 0zM69 22.5a5.5 5.5 0 11-11 0 5.5 5.5 0 0111 0zm-3.667 0a1.833 1.833 0 10-3.666 0 1.833 1.833 0 003.666 0zM64 97.5c0 3.084-3.294 5.5-7.5 5.5-4.206 0-7.5-2.416-7.5-5.5s3.294-5.5 7.5-5.5c4.206 0 7.5 2.416 7.5 5.5zm-3.75 0c0-.748-1.46-1.833-3.75-1.833s-3.75 1.085-3.75 1.833 1.46 1.833 3.75 1.833 3.75-1.085 3.75-1.833z" fill="#D8D8D8"/><path fill-rule="evenodd" clip-rule="evenodd" d="M1.85 85.084a1.85 1.85 0 003.7 0v-2.112a7.265 7.265 0 001.85.262 7.258 7.258 0 001.85-.262v2.112a1.85 1.85 0 003.7 0v-4.406A7.328 7.328 0 009.25 68.7V49.94a3.7 3.7 0 013.7-3.7h1.85v1.85a7.4 7.4 0 007.4 7.4h1.85v25.894a9.26 9.26 0 009.25 9.249h.095C34.337 102.14 43.953 111 55.502 111s21.165-8.859 22.107-20.367h.091a9.26 9.26 0 009.25-9.249V55.49h1.85a7.4 7.4 0 007.4-7.398v-1.85h1.85a3.7 3.7 0 013.7 3.7V68.7a7.33 7.33 0 00-3.7 11.978v4.406a1.85 1.85 0 003.7 0v-2.112a6.65 6.65 0 003.7 0v2.112a1.85 1.85 0 003.7 0v-4.406a7.328 7.328 0 00-3.7-11.978V49.94a7.399 7.399 0 00-7.4-7.398H96.2v-1.85a7.4 7.4 0 00-7.4-7.398h-1.85v-1.85C86.95 14.078 72.87 0 55.5 0 38.13 0 24.05 14.078 24.05 31.444v1.85H22.2a7.4 7.4 0 00-7.4 7.399v1.849h-1.85a7.4 7.4 0 00-7.4 7.398V68.7a7.33 7.33 0 00-3.7 11.978v4.406zm105.45-9.248a3.7 3.7 0 11-7.399 0 3.7 3.7 0 017.399 0zM37.095 90.633c.96 9.445 8.91 16.635 18.405 16.647 9.497-.011 17.448-7.201 18.41-16.647H37.094zM88.8 36.993a3.7 3.7 0 013.7 3.7v7.398a3.7 3.7 0 01-3.7 3.7h-1.85V36.992h1.85zM55.5 3.7c-15.326 0-27.75 12.422-27.75 27.745V53.64h5.55a1.85 1.85 0 010 3.7h-5.55v3.7h5.55a1.85 1.85 0 110 3.699h-5.55v16.646a5.55 5.55 0 005.55 5.55h44.4a5.55 5.55 0 005.55-5.55V64.738h-33.3a1.85 1.85 0 010-3.7h33.3V57.34h-33.3a1.85 1.85 0 010-3.7h33.3V31.443c0-15.323-12.424-27.745-27.75-27.745zm-37 36.994a3.7 3.7 0 013.7-3.7h1.85V51.79H22.2a3.7 3.7 0 01-3.7-3.7v-7.398zm-7.4 35.143a3.7 3.7 0 10-7.399 0 3.7 3.7 0 007.4 0z" fill="#D8D8D8"/></svg>