<svg width="203" height="85" fill="none" xmlns="http://www.w3.org/2000/svg"><path d="M5.102 68.852h.085c.438 0 .835.099 1.192.296.36.196.638.472.836.829.2.356.3.757.3 1.203 0 .442-.1.84-.3 1.195a2.09 2.09 0 01-.828.82 2.426 2.426 0 01-1.184.297h-.101v.742h-.95v-.742H4.06c-.44 0-.84-.098-1.2-.293a2.103 2.103 0 01-.836-.824 2.403 2.403 0 01-.293-1.188c0-.445.1-.846.297-1.203.198-.356.476-.634.832-.832.357-.2.757-.3 1.2-.3h.093v-.774h.95v.774zm-1.043.792c-.438 0-.78.137-1.028.41-.245.274-.367.652-.367 1.133 0 .47.122.839.367 1.11.245.268.591.402 1.04.402h.081v-3.055H4.06zm1.043 0V72.7h.093c.438 0 .778-.136 1.02-.41.245-.273.367-.643.367-1.11 0-.476-.122-.85-.367-1.124-.242-.274-.586-.41-1.031-.41h-.082zm6.597 1.817H9.363v1.75h2.73V74H8.376v-5.688h3.691v.797H9.363v1.57H11.7v.782zm5.54.687c-.058.607-.282 1.081-.673 1.422-.39.339-.91.508-1.558.508-.453 0-.853-.107-1.2-.32a2.132 2.132 0 01-.796-.918c-.188-.396-.285-.856-.293-1.38v-.53c0-.537.095-1.01.285-1.418.19-.41.462-.724.816-.946a2.293 2.293 0 011.235-.332c.627 0 1.133.17 1.515.512.383.341.606.823.668 1.445h-.984c-.047-.408-.167-.703-.36-.882-.19-.183-.47-.274-.84-.274-.429 0-.76.158-.992.473-.229.312-.346.772-.351 1.379v.504c0 .614.11 1.083.328 1.406.221.323.544.484.969.484.388 0 .68-.087.875-.262.195-.174.319-.464.37-.87h.985zm4.878-3.039h-1.773V74h-.98v-4.89h-1.759v-.797h4.512v.796zm4.235-.796h.988V74h-.988v-4.05L23.855 74h-.988v-5.688h.988v4.055l2.497-4.055zM28.523 74v-5.688h1.95c.643 0 1.133.13 1.468.387.336.258.504.642.504 1.153 0 .26-.07.494-.21.703-.141.208-.347.37-.618.484.307.083.544.24.711.473.17.229.254.505.254.828 0 .534-.172.944-.516 1.23-.34.287-.83.43-1.468.43h-2.075zm.989-2.566v1.777h1.097c.31 0 .552-.077.727-.23.174-.154.262-.368.262-.641 0-.591-.302-.893-.907-.906h-1.18zm0-.727h.968c.308 0 .547-.069.72-.207.174-.14.26-.338.26-.594 0-.281-.08-.484-.241-.61-.16-.124-.408-.187-.746-.187h-.961v1.598zm7.242 1.969H34.55L34.09 74h-1.028l2.149-5.688h.887L38.25 74h-1.031l-.465-1.324zm-1.926-.797h1.649l-.825-2.36-.824 2.36zm8.613-3.567V74h-.984v-4.89h-1.742l-.102 2.199c-.039.687-.123 1.22-.254 1.601-.127.378-.313.654-.558.828-.245.175-.573.262-.985.262h-.25v-.79l.157-.01c.226-.022.4-.101.523-.24.125-.137.219-.345.281-.624.065-.281.111-.694.137-1.238l.11-2.785h3.667zm2.164 2.176h1.165c.416 0 .78.072 1.09.215.31.143.545.346.706.61.162.263.243.567.243.914 0 .53-.181.958-.543 1.28-.36.324-.85.488-1.473.493h-2.176v-5.688h.989v2.176zm0 .793v1.93h1.16c.334 0 .593-.09.778-.27.188-.182.281-.423.281-.722 0-.287-.09-.513-.273-.68-.183-.167-.435-.252-.758-.258h-1.188zM56.157 74h-.984v-4.89h-2.504V74h-.984v-5.688h4.472V74zm5.735-2.695c0 .557-.097 1.047-.29 1.468-.192.42-.468.743-.828.97a2.273 2.273 0 01-1.234.335c-.46 0-.872-.112-1.234-.336a2.249 2.249 0 01-.836-.965c-.196-.416-.294-.897-.297-1.441v-.32c0-.555.098-1.045.293-1.47a2.22 2.22 0 01.832-.972c.36-.226.77-.34 1.234-.34.464 0 .874.112 1.23.336.36.222.637.542.833.961.195.417.294.903.297 1.457v.317zm-.989-.297c0-.63-.12-1.114-.359-1.45-.237-.335-.574-.503-1.012-.503-.427 0-.761.168-1.004.504-.24.333-.362.806-.367 1.418v.328c0 .625.121 1.108.363 1.449.245.341.584.512 1.016.512.438 0 .773-.167 1.008-.5.237-.334.355-.82.355-1.461v-.297zm4.817-1.145a.734.734 0 00-.29-.61c-.192-.15-.454-.226-.785-.226-.283 0-.52.076-.71.227a.7.7 0 00-.286.578h-.984c0-.31.086-.586.258-.828.172-.242.41-.43.715-.563.304-.135.64-.203 1.007-.203.652 0 1.157.142 1.516.426.362.284.543.681.543 1.192 0 .257-.078.494-.234.71a1.577 1.577 0 01-.656.512c.317.11.56.276.726.5.17.221.254.498.254.828 0 .51-.195.917-.586 1.219-.39.3-.911.45-1.563.45-.4 0-.764-.072-1.09-.216-.322-.143-.566-.338-.73-.586a1.523 1.523 0 01-.242-.851h.984a.78.78 0 00.305.621c.203.167.461.25.773.25.35 0 .63-.082.84-.246a.771.771 0 00.32-.64c0-.321-.093-.553-.28-.696-.186-.146-.458-.219-.817-.219h-.668v-.781h.633c.698 0 1.047-.283 1.047-.848zm5.476-1.55h.989V74h-.989v-4.05L68.7 74h-.988v-5.688h.988v4.055l2.496-4.055zm6.164.796h-1.773V74h-.98v-4.89h-1.758v-.797h4.511v.796zm4.235-.796h.988V74h-.988v-4.05L79.098 74h-.989v-5.688h.989v4.055l2.496-4.055zM83.766 74v-5.688h1.949c.643 0 1.133.13 1.469.387.335.258.504.642.504 1.153 0 .26-.07.494-.211.703-.141.208-.347.37-.618.484.308.083.545.24.711.473.17.229.254.505.254.828 0 .534-.172.944-.515 1.23-.342.287-.831.43-1.47.43h-2.073zm.988-2.566v1.777h1.098c.31 0 .552-.077.726-.23.175-.154.262-.368.262-.641 0-.591-.302-.893-.906-.906h-1.18zm0-.727h.969c.307 0 .546-.069.718-.207.175-.14.262-.338.262-.594 0-.281-.08-.484-.242-.61-.159-.124-.408-.187-.746-.187h-.961v1.598zM93.328 74h-.984v-2.527H89.8V74h-.989v-5.688h.989v2.368h2.543v-2.368h.984V74zm5.711-2.695c0 .557-.096 1.047-.289 1.468-.193.42-.469.743-.828.97a2.273 2.273 0 01-1.234.335 2.3 2.3 0 01-1.235-.336 2.25 2.25 0 01-.836-.965c-.195-.416-.294-.897-.297-1.441v-.32c0-.555.098-1.045.293-1.47a2.22 2.22 0 01.832-.972c.36-.226.771-.34 1.235-.34.463 0 .873.112 1.23.336.36.222.637.542.832.961.195.417.294.903.297 1.457v.317zm-.988-.297c0-.63-.12-1.114-.36-1.45-.237-.335-.574-.503-1.011-.503-.427 0-.762.168-1.004.504-.24.333-.362.806-.367 1.418v.328c0 .625.12 1.108.363 1.449.245.341.583.512 1.016.512.437 0 .773-.167 1.007-.5.237-.334.356-.82.356-1.461v-.297zm5.609-1.899h-2.625V74h-.984v-5.688h3.609v.797zm5.098 2.196c0 .557-.097 1.047-.289 1.468a2.2 2.2 0 01-.828.97 2.276 2.276 0 01-1.235.335c-.461 0-.872-.112-1.234-.336a2.246 2.246 0 01-.836-.965c-.195-.416-.294-.897-.297-1.441v-.32c0-.555.098-1.045.293-1.47a2.22 2.22 0 01.832-.972 2.27 2.27 0 011.234-.34c.464 0 .874.112 1.231.336.359.222.637.542.832.961.195.417.294.903.297 1.457v.317zm-.988-.297c0-.63-.12-1.114-.36-1.45-.237-.335-.574-.503-1.012-.503-.427 0-.761.168-1.003.504-.24.333-.362.806-.368 1.418v.328c0 .625.121 1.108.364 1.449.244.341.583.512 1.015.512.438 0 .774-.167 1.008-.5.237-.334.356-.82.356-1.461v-.297zm7.449-2.695h.988V74h-.988v-4.05L112.723 74h-.989v-5.688h.989v4.055l2.496-4.055zm7.488 7.085h-.937V74h-3.747v1.398h-.953l-.031-2.187h.457c.227-.219.408-.537.543-.953.135-.42.223-.893.262-1.422l.148-2.523h3.586v4.898h.723l-.051 2.187zm-4.094-2.187h2.438v-4.102h-1.66l-.094 1.602c-.07 1.07-.298 1.904-.684 2.5zm8.211-1.75h-2.336v1.75h2.731V74H123.5v-5.688h3.691v.797h-2.703v1.57h2.336v.782zm4.684-3.148h.988V74h-.988v-4.05L129.012 74h-.989v-5.688h.989v4.055l2.496-4.055zm.031-1.45c0 .328-.115.594-.344.797-.229.203-.535.305-.918.305-.382 0-.688-.102-.918-.305a1.014 1.014 0 01-.343-.797h.711c0 .172.048.306.144.403.099.093.234.14.406.14a.558.558 0 00.403-.14c.096-.097.144-.23.144-.403h.715zM138.195 74h-.984v-2.527h-2.543V74h-.988v-5.688h.988v2.368h2.543v-2.368h.984V74zm5.711-2.695c0 .557-.096 1.047-.289 1.468a2.2 2.2 0 01-.828.97 2.273 2.273 0 01-1.234.335 2.3 2.3 0 01-1.235-.336 2.252 2.252 0 01-.836-.965c-.195-.416-.294-.897-.296-1.441v-.32c0-.555.097-1.045.292-1.47.198-.424.476-.748.832-.972.36-.226.771-.34 1.235-.34.463 0 .874.112 1.23.336.36.222.637.542.832.961.196.417.295.903.297 1.457v.317zm-.988-.297c0-.63-.12-1.114-.359-1.45-.237-.335-.575-.503-1.012-.503-.427 0-.762.168-1.004.504-.24.333-.362.806-.367 1.418v.328c0 .625.121 1.108.363 1.449.245.341.583.512 1.016.512.437 0 .773-.167 1.007-.5.237-.334.356-.82.356-1.461v-.297zm5.609-1.899h-2.625V74h-.984v-5.688h3.609v.797zm5.098 2.196c0 .557-.096 1.047-.289 1.468a2.2 2.2 0 01-.828.97 2.274 2.274 0 01-1.235.335c-.461 0-.872-.112-1.234-.336a2.252 2.252 0 01-.836-.965c-.195-.416-.294-.897-.297-1.441v-.32c0-.555.098-1.045.293-1.47a2.22 2.22 0 01.832-.972c.36-.226.771-.34 1.235-.34.463 0 .873.112 1.23.336.359.222.637.542.832.961.195.417.294.903.297 1.457v.317zm-.988-.297c0-.63-.12-1.114-.36-1.45-.237-.335-.574-.503-1.011-.503-.427 0-.762.168-1.004.504-.24.333-.362.806-.367 1.418v.328c0 .625.121 1.108.363 1.449.245.341.583.512 1.015.512.438 0 .774-.167 1.008-.5.237-.334.356-.82.356-1.461v-.297zm7.449-2.695h.988V74h-.988v-4.05L157.59 74h-.988v-5.688h.988v4.055l2.496-4.055zm6.512 3.835c-.058.607-.282 1.081-.672 1.422-.391.339-.91.508-1.559.508-.453 0-.853-.107-1.199-.32a2.134 2.134 0 01-.797-.918c-.187-.396-.285-.856-.293-1.38v-.53c0-.537.095-1.01.285-1.418.19-.41.463-.724.817-.946a2.29 2.29 0 011.234-.332c.628 0 1.133.17 1.516.512.382.341.605.823.668 1.445h-.985c-.047-.408-.166-.703-.359-.882-.19-.183-.47-.274-.84-.274-.43 0-.76.158-.992.473-.229.312-.346.772-.352 1.379v.504c0 .614.11 1.083.328 1.406.222.323.545.484.969.484.388 0 .68-.087.875-.262.196-.174.319-.464.371-.87h.985zm2.57-.585h-.672V74h-.984v-5.688h.984v2.391h.543l1.672-2.39h1.211l-1.953 2.722L172.094 74h-1.188l-1.738-2.438zm5.52-.278l1.14-2.972h1.098l-1.981 4.718-.179.356c-.261.463-.683.695-1.266.695l-.406-.023.008-.782c.062.01.173.016.332.016.281 0 .479-.12.593-.36l.203-.48-1.945-4.14h1.078l1.325 2.972zm7.238.863c-.058.607-.281 1.081-.672 1.422-.391.339-.91.508-1.559.508-.453 0-.853-.107-1.199-.32a2.134 2.134 0 01-.797-.918c-.187-.396-.285-.856-.293-1.38v-.53c0-.537.095-1.01.285-1.418a2.16 2.16 0 01.817-.946 2.293 2.293 0 011.234-.332c.628 0 1.133.17 1.516.512.383.341.605.823.668 1.445h-.985c-.046-.408-.166-.703-.359-.882-.19-.183-.47-.274-.84-.274-.43 0-.76.158-.992.473-.229.312-.346.772-.352 1.379v.504c0 .614.11 1.083.329 1.406.221.323.544.484.968.484.388 0 .68-.087.875-.262.196-.174.319-.464.371-.87h.985zm5.226 0c-.057.607-.281 1.081-.672 1.422-.39.339-.91.508-1.558.508-.453 0-.853-.107-1.199-.32a2.127 2.127 0 01-.797-.918c-.188-.396-.285-.856-.293-1.38v-.53c0-.537.095-1.01.285-1.418.19-.41.462-.724.816-.946a2.296 2.296 0 011.235-.332c.627 0 1.133.17 1.515.512.383.341.606.823.668 1.445h-.984c-.047-.408-.167-.703-.359-.882-.191-.183-.47-.274-.84-.274-.43 0-.761.158-.992.473-.23.312-.347.772-.352 1.379v.504c0 .614.109 1.083.328 1.406.221.323.544.484.969.484.388 0 .68-.087.875-.262.195-.174.319-.464.371-.87h.984zm4.879-3.039h-1.773V74h-.981v-4.89h-1.757v-.797h4.511v.796zm.75 4.891v-5.688h1.949c.644 0 1.133.13 1.469.387.336.258.504.642.504 1.153 0 .26-.07.494-.211.703a1.35 1.35 0 01-.617.484c.307.083.544.24.711.473.169.229.254.505.254.828 0 .534-.172.944-.516 1.23-.341.287-.831.43-1.469.43h-2.074zm.989-2.566v1.777h1.097c.31 0 .552-.077.727-.23.174-.154.261-.368.261-.641 0-.591-.302-.893-.906-.906h-1.179zm0-.727h.968c.308 0 .547-.069.719-.207.175-.14.262-.338.262-.594 0-.281-.081-.484-.242-.61-.159-.124-.408-.187-.747-.187h-.96v1.598zm7.242 1.969h-2.203L198.348 74h-1.028l2.149-5.688h.886L202.508 74h-1.031l-.465-1.324zm-1.926-.797h1.648l-.824-2.36-.824 2.36z" fill="#fff"/><mask id="a" maskUnits="userSpaceOnUse" x="0" y="13" width="61" height="21"><path fill-rule="evenodd" clip-rule="evenodd" d="M0 13.425h60.57v20.106H0V13.425z" fill="#fff"/></mask><g mask="url(#a)"><path fill-rule="evenodd" clip-rule="evenodd" d="M60.526 13.962c-.352 2.52-.7 4.883-1.002 7.253-.075.595-.49.624-.875.702-3.673.744-7.348 1.48-11.024 2.205-7.04 1.39-14.081 2.768-21.122 4.154-6.635 1.306-13.27 2.611-19.905 3.925-2.013.399-4.018.829-6.03 1.227-.177.035-.478.26-.557-.09-.08-.357.295-.275.467-.331 6.36-2.069 12.728-4.106 19.083-6.187 5.61-1.837 11.202-3.734 16.81-5.581 4.975-1.64 9.964-3.24 14.943-4.87 2.808-.919 5.609-1.86 8.412-2.793.496-.165.996-.354.8.386z" fill="#3B5074"/></g><path fill-rule="evenodd" clip-rule="evenodd" d="M130.323 23.927l.001.441-.055.04.084.089c.058 1.314.16 2.63.151 3.943-.004.67.212.92.855.95.314.014.82-.062.875.384.082.66.167 1.353-.069 1.997-.077.212-.408.11-.624.11-1.917.006-3.835-.02-5.753.016-.594.011-.737-.186-.772-.766-.063-1.029-.001-1.865 1.322-1.844.357.007.381-.253.381-.534-.004-3.52-.014-7.039.006-10.558.004-.569-.312-.587-.717-.653-.32-.052-.829.06-.897-.359-.111-.69-.162-1.414.045-2.102.065-.217.339-.095.52-.095 1.694 0 3.388.013 5.082-.002.463-.004.694.088.867.615 1.029 3.137 2.122 6.252 3.206 9.37.177.507.28 1.055.695 1.563 1.206-3.508 2.414-6.948 3.562-10.407.276-.832.589-1.251 1.578-1.17 1.524.123 3.066.051 4.6.024.508-.009.79.083.698.673a2.5 2.5 0 00.009.773c.113.708-.117 1.092-.875 1.104-.71.01-.932.366-.922 1.11.041 3.26.019 6.522-.01 9.783-.005.598.169.877.782.934.348.032.902-.06.973.422.093.628.049 1.287-.023 1.923-.028.24-.381.159-.593.16-1.918.012-3.836.005-5.754.032-.549.008-.853-.134-.769-.759a3.84 3.84 0 00.002-.87c-.049-.537.084-.876.705-.867.779.012.977-.405.958-1.167-.055-2.144-.019-4.29-.019-6.374-.43.375-.49 1.113-.722 1.728a242.733 242.733 0 00-2.744 7.687c-.156.458-.359.636-.794.638-.447.002-.898-.016-1.341.029-.524.053-.746-.233-.899-.669-1.11-3.172-2.225-6.341-3.339-9.512.005-.26-.098-.446-.408-.588l.039.625c.18.658.112 1.329.101 1.996l-.06.033.062.104zm61.291 26.016c1.793 0 3.454-.017 5.114.01.553.008.728-.205.725-.734a905.853 905.853 0 010-9.612c.003-.514-.18-.673-.668-.657-.801.026-1.607.047-2.405-.006-.68-.044-.838.216-.885.87-.15 2.07-.168 4.15-.533 6.204-.24 1.348-.783 2.59-1.348 3.925zm4.084-13.978c2.121 0 4.243.025 6.364-.014.698-.013.941.159.938.907-.004.973.024 1.807-1.315 1.745-.434-.02-.45.36-.45.702.004 3.307.018 6.615-.01 9.922-.006.635.257.803.8.711.844-.142.994.253.967 1.017-.062 1.729.013 3.462-.14 5.19-.044.501-.117.757-.762.776-2.734.08-2.733.113-2.731-2.635 0-.257-.027-.518.007-.77.069-.518-.148-.65-.646-.647-2.797.017-5.593.017-8.389-.01-.529-.006-.674.193-.659.672.027.833-.023 1.672.046 2.502.063.75-.234.956-.935.897-.638-.054-1.285-.026-1.927-.007-.416.012-.642-.071-.653-.572a173.092 173.092 0 00-.199-5.672c-.032-.602.148-.831.743-.74.551.086.884-.216 1.188-.636 1.056-1.452 1.381-3.135 1.546-4.859.162-1.687.256-3.38.391-5.07.041-.51-.126-.765-.678-.815-.307-.028-.796-.002-.833-.46-.054-.666-.147-1.357.064-2.002.08-.242.468-.124.716-.125 2.185-.006 4.371-.003 6.557-.003v-.004zm-63.058-.003c2.438 0 4.876.03 7.313-.017.749-.014 1.004.157 1.03.99.032 1.018-.112 1.687-1.263 1.663-.46-.01-.458.334-.458.668 0 3.447.016 6.895-.013 10.343-.006.66.361.701.81.773.999.163.992.227.904 1.924-.049.933-.687.565-1.091.574-1.718.037-3.439-.022-5.156.033-.731.025-.962-.236-.864-.938a2.63 2.63 0 00.002-.675c-.071-.605.153-.907.764-.904.726.002.968-.349.956-1.13-.048-3.124-.043-6.25-.002-9.375.01-.772-.222-.97-.944-.943-1.499.058-3.001.04-4.5.006-.563-.013-.752.154-.748.757.028 3.221.036 6.444-.003 9.666-.008.739.303.971.919.998 1.442.062.729 1.194.838 1.875.144.907-.583.623-1.012.63-1.749.024-3.5-.005-5.25.026-.573.01-.908-.1-.807-.787a3.36 3.36 0 00.002-.868c-.064-.56.116-.856.701-.838.861.026 1.063-.445 1.051-1.28-.044-3.19-.03-6.38-.006-9.57.004-.608-.1-.917-.777-1-.797-.097-1.328-1.703-.862-2.412.197-.299.512-.184.778-.184 2.563-.008 5.125-.005 7.688-.005zm23.637-15.544c0-2.808-.002-2.818-2.573-2.502-.408.05-.813.213-1.192.384-.223.101-.44.289-.578.492-.596.87-.512 2.52.139 3.292.521.619 3.049 1.178 3.875.658.76-.477.172-1.416.327-2.132.013-.06.002-.128.002-.192zm.561-5.464c1.737 0 3.104.014 4.47-.009.447-.008.672.095.614.583a3.944 3.944 0 00-.001.869c.072.687-.133 1.116-.917 1.099-.655-.014-.876.293-.87.958.033 3.255.035 6.51-.001 9.765-.007.723.207 1.076.951 1.129 1.473.104.7 1.23.808 1.904.137.86-.628.541-1.02.556-1.779.063-3.561.044-5.339.114-.761.03-1.023-.165-1.059-.98-.046-1.026.137-1.647 1.312-1.645.427 0 .599-.277.571-.717-.035-.545.059-1.106-.029-1.64-.07-.425.446-1.141-.417-1.24-.745-.087-1.492-.2-1.857.855-.479 1.381-1.018 2.763-1.977 3.928-1.071 1.3-2.66 1.773-4.27 1.255-.598-.192-.958-.477-.745-1.174.092-.304.107-.633.152-.95.096-.685.174-1.343 1.193-1.054.477.134.889-.156 1.162-.542a8.77 8.77 0 00.681-1.157c.301-.602.83-1.243.778-1.825-.052-.594-1.024-.645-1.507-1.067-1.574-1.378-1.989-3.13-1.55-5.073.484-2.133 1.969-3.298 4.084-3.746 1.707-.361 3.435-.12 4.783-.197z" fill="#353133"/><path fill-rule="evenodd" clip-rule="evenodd" d="M4 35.645c1.33-.246 2.55-.482 3.774-.695 6.635-1.158 13.276-2.29 19.908-3.47 8.442-1.5 16.878-3.041 25.317-4.56 1.803-.323 3.613-.612 5.416-.94.485-.088.748-.05.84.544.181 1.165.442 2.319.704 3.47.122.538-.014.717-.583.77-5.106.478-10.207 1.004-15.313 1.486-5.042.475-10.09.9-15.133 1.375-5.105.481-10.207 1.005-15.312 1.493-2.959.283-5.92.537-8.88.792-.195.017-.435.152-.738-.265z" fill="#3B5074"/><path fill-rule="evenodd" clip-rule="evenodd" d="M148.473 52.93c-1.912-.001-3.823-.022-5.735.011-.573.01-.79-.179-.708-.774.031-.222.037-.46-.001-.68-.128-.739.169-1.092.863-1.098.634-.005.835-.342.831-.989-.021-3.31-.031-6.62.007-9.928.009-.685-.24-.921-.817-.98-.353-.037-.818.01-.85-.528-.037-.638-.126-1.292.071-1.916.026-.082.331-.092.507-.093 3.854-.005 7.708.002 11.562-.01.502-.002.72.15.702.722a67.115 67.115 0 00-.003 3.504c.011.536-.148.796-.688.726-.212-.029-.43-.005-.646-.005-1.423 0-1.442.002-1.616-1.46-.05-.426-.198-.536-.582-.53a87.58 87.58 0 01-3.514-.01c-.487-.01-.648.18-.629.686.032.81.03 1.623-.003 2.433-.022.507.141.683.628.674 1.325-.026 2.652.025 3.977-.02.621-.021.789.204.776.834-.052 2.435.253 2.115-2.017 2.133-.893.008-1.788.028-2.682.004-.461-.013-.663.12-.645.65.035 1.006.023 2.012.004 3.018-.009.506.187.686.662.677 1.11-.024 2.22-.035 3.329.001.598.019.867-.196.794-.837-.099-.875.163-1.272 1.112-1.231 1.819.077 1.821.016 1.821 1.967 0 .746-.037 1.495.012 2.238.043.65-.188.836-.788.825-1.911-.033-3.822-.012-5.734-.014zm-30.94-37.965c1.859 0 3.719.037 5.575-.02.724-.02.895.232.861.937-.054 1.13-.037 2.265-.01 3.397.011.495-.124.725-.624.671-.276-.03-.557-.005-.836-.005-1.353 0-1.381.002-1.494-1.391-.04-.5-.155-.65-.654-.629a43.24 43.24 0 01-3.437.005c-.454-.016-.617.128-.612.582a67.35 67.35 0 01-.003 2.62c-.013.535.239.63.686.621 1.3-.023 2.603.014 3.903-.017.561-.014.755.17.742.776-.049 2.476.23 2.135-2.005 2.154-.867.008-1.737.042-2.602-.012-.6-.038-.732.2-.706.774.042.936.039 1.878.001 2.814-.022.545.139.74.673.721a38.883 38.883 0 013.252.007c.619.032.933-.131.864-.82-.103-1.028.371-1.252 1.292-1.2 1.581.09 1.584.024 1.586 1.706 0 .874-.032 1.749.013 2.62.027.536-.172.667-.639.665a1576.13 1576.13 0 00-11.71.003c-.507.003-.656-.207-.622-.684.017-.257.033-.522-.004-.775-.099-.66.114-1.052.789-1.046.791.007.92-.433.912-1.17-.037-3.203-.04-6.408.002-9.61.01-.732-.208-1.138-.886-1.13-.688.008-.851-.35-.817-.96.016-.29.036-.587-.001-.873-.082-.635.212-.75.749-.742 1.921.027 3.842.01 5.762.01zm59.92 37.963c-1.86 0-3.72-.025-5.579.013-.624.013-.859-.136-.861-.848-.003-.967-.049-1.824 1.242-1.764.36.017.413-.315.413-.63.004-3.504.003-7.007.021-10.51.003-.62-.394-.641-.8-.702-.324-.047-.784.024-.822-.433-.055-.663-.15-1.354.08-2 .035-.098.393-.098.601-.098 3.812-.004 7.625.012 11.438-.012.603-.004.795.154.759.81a36.474 36.474 0 00-.005 3.405c.025.622-.194.818-.748.738-.213-.03-.433-.005-.65-.005-1.327-.001-1.352.003-1.547-1.338-.07-.476-.206-.66-.688-.645a56.677 56.677 0 01-3.347-.004c-.548-.016-.692.228-.668.758a25.3 25.3 0 01-.005 2.238c-.028.594.191.8.756.786 1.301-.03 2.604.012 3.904-.022.571-.015.752.184.728.784-.093 2.395.389 2.176-2.075 2.188-.869.005-1.737.018-2.604-.015-.509-.02-.728.14-.707.71.037.972.024 1.946.008 2.92-.009.534.185.744.715.728a58.358 58.358 0 013.347-.004c.502.013.705-.133.74-.697.084-1.345.115-1.342 1.34-1.343 1.549 0 1.549 0 1.549 1.65 0 .845-.031 1.69.009 2.53.03.623-.149.842-.779.828-1.921-.044-3.843-.016-5.765-.017z" fill="#353133"/><path fill-rule="evenodd" clip-rule="evenodd" d="M164.038 39.013c-1.652-.044-1.652-.044-1.652 1.663v.773c0 2.91 0 2.91 2.893 2.477 1.414-.211 2.105-1.069 2.074-2.573-.029-1.405-.769-2.203-2.194-2.334-.37-.035-.747-.006-1.121-.006zm-2.373-3.05c1.767.096 3.839-.244 5.844.48 2.212.8 3.567 2.83 3.488 5.212-.09 2.678-1.818 4.378-3.928 5.013-1.288.388-2.598.294-3.901.264-.635-.015-.837.206-.789.823.033.416.047.842-.001 1.256-.109.919.131 1.487 1.149 1.447.497-.02.597.304.584.765-.061 2.12.258 1.668-1.594 1.702-1.561.029-3.125-.018-4.686.019-.599.014-.885-.148-.803-.807a3.564 3.564 0 000-.87c-.072-.578.153-.84.716-.834.816.01.998-.454.99-1.235a456.725 456.725 0 01-.003-9.582c.007-.674-.159-.998-.854-1.072-.26-.027-.792.11-.821-.407-.036-.67-.141-1.363.084-2.01.094-.27.444-.16.685-.161 1.186-.007 2.374-.003 3.84-.003zm-58.399-18.056c-.461 0-.718.039-.959-.007-.716-.136-.994.102-.951.898.063 1.159.014 2.325.02 3.488.002.304-.095.68.417.667.903-.022 1.816.05 2.707-.062.597-.075 1.155-.371 1.484-1.015 1.039-2.032.129-3.767-2.092-3.936-.279-.021-.558-.03-.626-.033zm-2.164-2.962c1.425.114 3.151-.192 4.855.248 2.42.623 4.02 2.583 4.043 5.03.026 2.764-1.411 4.761-3.911 5.434-1.315.354-2.659.39-4.002.329-.59-.027-.79.171-.722.764a4.4 4.4 0 01.005 1.07c-.134 1.004.044 1.705 1.235 1.67.345-.01.539.239.5.653-.036.386-.025.78-.004 1.168.027.466-.166.626-.607.623a321.248 321.248 0 00-5.824.01c-.504.006-.673-.21-.646-.695.018-.324.036-.654-.004-.973-.07-.543.181-.814.656-.813.934.002 1.072-.508 1.059-1.362-.048-3.15-.04-6.3-.004-9.449.008-.745-.12-1.176-.94-1.174-.267.001-.724-.013-.73-.44-.012-.669-.18-1.362.1-2 .047-.106.401-.088.613-.089 1.347-.007 2.694-.004 4.328-.004z" fill="#353133"/><path fill-rule="evenodd" clip-rule="evenodd" d="M63 56.57c.693-.023.847-.348.81-1.015a174.505 174.505 0 01-.26-7.224c-.014-1.009.672-1.821 1.078-2.703.856-1.86 1.766-3.693 2.725-5.684.276.654.019 1.123-.081 1.567-1.05 4.672-2.114 9.342-3.213 14.004-.185.784.038 1.03.798 1.026.92-.005 1.854-.038 2.754.11.779.128.92-.214 1.034-.829.689-3.707 1.4-7.41 2.124-11.215.312.49.173.924.121 1.333-.418 3.27-.824 6.541-1.296 9.803-.12.837.068 1.147.936 1.116a14.18 14.18 0 012.364.133c.734.095.905-.177.927-.877.133-4.09.316-8.178.484-12.267.009-.214-.044-.446.186-.668.029.405.082.767.078 1.127-.054 3.991.501 7.954.547 11.94.006.516.037.903.745.932 2.57.107 5.138.261 7.704.43.741.049.869-.091.529-.802-1.737-3.628-3.425-7.279-5.125-10.925-.017-.038.038-.11.111-.302.733.676 1.155 1.507 1.65 2.268a956.324 956.324 0 016.05 9.431c.26.411.558.53 1.008.557 2.122.12 4.243.278 6.365.398.362.021.753.05 1.025-.345.329-.478-.116-.722-.296-.986-2.7-3.946-5.426-7.875-8.141-11.811-.026-.036-.003-.105-.003-.291 1.532 1.94 3.003 3.795 4.465 5.655 1.467 1.868 2.926 3.742 4.39 5.612.355.453.6.699 1.084.005.885-1.266.937-1.212-.071-2.47-2.454-3.066-4.896-6.142-7.344-9.213-.157-.197-.354-.377-.132-.72 1.613 1.447 2.978 3.106 4.431 4.68 1.508 1.632 2.983 3.294 4.48 4.938.218.24.415.638.959.31-.76 1.994-1.525 3.984-2.27 5.984-.18.483-.541.355-.871.323-3.382-.336-6.763-.675-10.144-1.02-4.862-.498-9.723-1.003-14.586-1.5-2.709-.277-5.419-.544-8.129-.815zm13.939-46.349c-2.87.592-5.472 1.632-7.426 3.87-1.074 1.229-1.806 2.608-1.827 4.248-.042 3.304-.13 6.612-.014 9.912.112 3.194 2.083 5.277 4.789 6.79 1.367.766 2.843 1.262 4.539 1.608-.722.425-1.342.27-1.918.256-3.456-.094-6.654-.953-9.294-3.258-1.922-1.678-2.865-3.74-2.738-6.339.127-2.574.073-5.162-.04-7.738-.16-3.619 1.744-6.005 4.698-7.728 2.517-1.47 5.328-1.957 8.242-1.892.346.008.687.023.989.271zM64 .944c-.198.665-.514.855-1.007.925-5.969.85-11.932 1.737-17.901 2.585-5.412.769-10.829 1.494-16.242 2.251-2.519.353-5.033.742-7.551 1.095-.377.053-.918.358-1.105-.121-.206-.525-.206-1.167-.186-1.754.012-.347.412-.209.628-.233 3.025-.345 6.053-.667 9.08-.999 5.306-.58 10.61-1.17 15.918-1.744 5.214-.564 10.43-1.112 15.645-1.67.871-.095 1.74-.214 2.721-.335zm-1.065 36.643L5 40.944c1.23-.512 2.536-.52 3.807-.595 5.803-.343 11.58-.998 17.373-1.447 6.109-.474 12.21-1.05 18.316-1.567 5.504-.466 11.012-.889 16.513-1.384 1.143-.102 1.304.96 1.991 1.378l-.065.258zM70.04 6.932c-2.074 0-4.15-.02-6.224.011-.588.009-.851-.16-.812-.855a23.42 23.42 0 000-2.45c-.027-.562.185-.695.65-.694 4.242.014 8.485.015 12.728.004.415 0 .628.103.614.617a47.39 47.39 0 00.003 2.655c.017.597-.236.73-.733.724-2.075-.025-4.15-.01-6.225-.012zM3 48.133c1.461-.378 2.89-.087 4.309.01 10.161.69 20.318 1.437 30.477 2.163 6.063.433 12.127.854 18.188 1.309.354.026.958-.266 1.018.508.046.598-.087.875-.767.813a7904.23 7904.23 0 00-24.72-2.25c-6.844-.613-13.691-1.2-20.536-1.807-2.657-.236-5.313-.497-7.969-.746z" fill="#3B5074"/><path fill-rule="evenodd" clip-rule="evenodd" d="M64.018 36.866l20.333 4.165-3.023-5.087c1.617.751 2.98 1.395 4.355 2.012.349.157.326.408.309.688-.096 1.613-.204 3.226-.283 4.84-.037.758-.503.372-.787.28-3.656-1.173-7.307-2.364-10.959-3.555-3.322-1.083-6.642-2.171-9.963-3.257l.018-.086zM6 50.294c.492-.482.818-.333 1.118-.31 5.605.417 11.208.843 16.813 1.264 4.36.327 8.724.582 13.075 1.007 1.613.158 3.078 1.068 4.607 1.645.772.291 1.593.487 2.387 1.044l-38-4.65zm69.516-33.302c-.654.377-1.199.624-1.654.966-1.323.994-1.847 2.3-1.779 3.834.051 1.135.092 2.274.046 3.408-.081 2.022.962 3.377 2.936 4.229.308.133.62.26.928.393.012.006.005.049.006.074-2.973.412-6.344-1.87-5.97-4.793.166-1.303-.016-2.64.019-3.96.066-2.5 2.665-4.541 5.468-4.15zM77 7.13c-.26.374-.636.2-.953.199-2.951-.004-5.883.277-8.43 1.912-1.366.877-2.736.607-4.13.701-.31.022-.466-.124-.459-.448a4.525 4.525 0 00-.002-.288c-.085-2.245-.085-2.248 2.069-2.247 3.708.003 7.416.006 11.124.02.258.001.562-.144.781.151zM59 42.606c-.588.875-1.173 1.201-2.34.848-3.27-.987-6.22-.192-8.825 1.852-.247.194-.499.381-.835.638 2.086-3.448 7.658-4.982 12-3.338zm-23 3.371c2.857-2.659 6.729-2.715 9.7-.135.182.158.473.325.165.615-.26.244-.47.693-.936.38-.288-.193-.545-.433-.828-.636-2.265-1.627-4.626-1.697-7.065-.456-.515.263-.516.262-1.036.232zm17 8.963c-5.23.096-10.1-1.515-15-2.996l15 2.996zm-31-7.996c3.003-2.812 6.248-3.798 10.045-2.309.09.036.206.043.27.105.223.213.832.144.652.621-.183.489-.598.294-.975.11-1.746-.857-3.568-1.025-5.496-.766-1.72.23-2.973 1.241-4.496 2.24zM20 8.655c3.886-.526 36.084-5.185 39.971-5.71l.029.263c-3.884.534-36.08 5.202-39.963 5.736A57.006 57.006 0 0020 8.655zm67 32.289c.72.633 1.608 1.154 2 2-.807-.574-1.517-1.213-2-2zm43.836-19l-.039-1c.308.228.41.524.406.942l-.367.058zm.176 2.068a4.316 4.316 0 00-.062-.103l.06-.032.04.067-.038.068z" fill="#3B5074"/><path fill-rule="evenodd" clip-rule="evenodd" d="M131.035 24.008a6.899 6.899 0 00-.085-.087l.055-.04c.048.034.058.076.03.127z" fill="#3B5074"/><path fill-rule="evenodd" clip-rule="evenodd" d="M119.287 48.438c-.103.767-.693 1.1-1.341 1.304-1.057.332-2.144.154-3.218.2-.465.02-.47-.303-.47-.64-.001-1.004.035-2.01-.012-3.01-.031-.654.2-.867.795-.8.367.042.741.009 1.111.009v.006c.34 0 .68-.004 1.019 0 1.951.024 2.325 1.36 2.116 2.931zM116 38.878c.457.01.916.004 1.369.146 1.024.323 1.404.811 1.394 1.863-.009.876-.599 1.682-1.491 1.812-.851.123-1.724.082-2.588.114-.41.014-.417-.284-.417-.589v-1.553c-.01-1.822-.01-1.828 1.733-1.793zm4.648 5.09c1.814-1.625 2.262-3.763 1.166-5.62-.958-1.627-2.487-2.307-4.218-2.36-2.645-.084-5.295-.022-7.943-.015-.178 0-.483.009-.513.095-.22.65-.126 1.336-.079 2.004.031.43.431.428.724.438.77.025.934.449.926 1.191-.034 3.17-.036 6.342.001 9.512.009.775-.158 1.237-.968 1.23-.594-.005-.801.315-.727.914.039.319.022.647.003.97-.027.469.177.608.608.605 2.811-.022 5.626.074 8.43-.064 1.905-.093 3.632-.824 4.478-2.843 1.006-2.401.376-4.39-1.888-6.058zm-29.361-16.53c-.103.768-.693 1.1-1.34 1.304-1.058.333-2.145.154-3.22.2-.464.02-.469-.303-.469-.64 0-1.004.035-2.009-.012-3.01-.031-.654.2-.867.795-.8.367.042.74.008 1.111.008v.007c.34 0 .68-.004 1.02 0 1.95.024 2.324 1.36 2.115 2.931zm-3.288-9.56c.459.01.917.004 1.37.147 1.024.322 1.404.81 1.394 1.862-.009.875-.599 1.682-1.491 1.812-.85.124-1.724.082-2.587.113-.41.016-.419-.283-.419-.588v-1.553c-.009-1.822-.009-1.828 1.733-1.793zm4.65 5.09c1.813-1.625 2.261-3.762 1.165-5.621-.958-1.626-2.487-2.306-4.218-2.36-2.645-.082-5.295-.021-7.943-.015-.178 0-.484.01-.512.096-.222.65-.128 1.335-.08 2.004.03.43.432.428.724.438.77.026.934.449.926 1.191-.034 3.17-.035 6.342.001 9.512.009.775-.158 1.237-.968 1.23-.595-.004-.8.314-.727.914.038.319.022.647.004.97-.028.469.176.608.607.605 2.81-.022 5.626.074 8.43-.064 1.905-.093 3.632-.824 4.478-2.843 1.006-2.401.376-4.39-1.888-6.057z" fill="#353133"/></svg>