<svg width="197" height="58" fill="none" xmlns="http://www.w3.org/2000/svg"><mask id="a" maskUnits="userSpaceOnUse" x="0" y="12" width="59" height="21"><path fill-rule="evenodd" clip-rule="evenodd" d="M0 12.597h58.779v19.6H0v-19.6z" fill="#fff"/></mask><g mask="url(#a)"><path fill-rule="evenodd" clip-rule="evenodd" d="M58.737 13.12c-.342 2.456-.68 4.76-.972 7.07-.073.58-.476.609-.85.685-3.564.725-7.13 1.443-10.698 2.15-6.831 1.354-13.665 2.698-20.497 4.05-6.44 1.271-12.88 2.545-19.317 3.825-1.953.389-3.9.808-5.853 1.196-.17.034-.463.254-.54-.088-.077-.347.287-.268.454-.322 6.171-2.017 12.351-4.003 18.519-6.032 5.445-1.79 10.87-3.64 16.312-5.44 4.83-1.598 9.67-3.159 14.502-4.748 2.725-.895 5.444-1.813 8.164-2.723.48-.16.966-.344.776.377z" fill="#fff"/></g><path fill-rule="evenodd" clip-rule="evenodd" d="M126.472 22.835v.43c-.017.012-.036.025-.053.039l.082.086c.055 1.281.154 2.563.146 3.844-.004.653.206.897.83.926.305.014.796-.06.849.374.079.643.162 1.32-.067 1.947-.075.206-.396.107-.605.108-1.861.005-3.723-.02-5.584.015-.576.01-.715-.181-.749-.747-.061-1.003-.001-1.818 1.283-1.797.347.006.37-.247.37-.52-.004-3.432-.014-6.863.006-10.294.003-.554-.303-.572-.697-.636-.309-.051-.804.058-.869-.35-.109-.673-.158-1.379.043-2.05.063-.211.329-.092.505-.092 1.643 0 3.288.013 4.932-.002.449-.003.673.086.841.6.998 3.057 2.059 6.094 3.111 9.133.172.496.271 1.03.674 1.525 1.171-3.42 2.343-6.773 3.457-10.145.269-.812.572-1.22 1.531-1.142 1.48.12 2.976.05 4.465.024.493-.009.766.081.677.657-.037.245-.031.507.008.753.111.69-.113 1.065-.848 1.076-.689.01-.905.357-.895 1.083.04 3.178.019 6.358-.01 9.536-.005.583.164.856.759.911.338.032.875-.059.944.411.09.612.048 1.255-.022 1.874-.028.235-.37.155-.576.156-1.861.012-3.723.006-5.583.032-.534.007-.828-.13-.746-.74.037-.278.027-.568.002-.849-.048-.523.08-.854.683-.845.756.012.948-.394.93-1.137-.053-2.09-.019-4.183-.019-6.214-.417.366-.475 1.085-.7 1.685a238.515 238.515 0 00-2.663 7.493c-.151.447-.348.62-.771.623-.434.002-.87-.016-1.301.028-.508.052-.723-.227-.872-.652-1.077-3.092-2.16-6.182-3.24-9.273.004-.254-.096-.435-.396-.573l.038.609c.175.641.108 1.295.097 1.946l-.058.032c.021.033.041.067.061.102zm59.479 25.361c1.74 0 3.352-.016 4.963.01.536.007.706-.2.704-.716a886.976 886.976 0 01-.001-9.37c.003-.502-.174-.656-.648-.64-.777.025-1.559.045-2.334-.006-.659-.044-.813.21-.859.847-.145 2.018-.163 4.047-.517 6.049-.233 1.314-.759 2.525-1.308 3.826zm3.964-13.626c2.058 0 4.117.024 6.176-.014.677-.013.913.155.909.884-.003.948.023 1.762-1.276 1.701-.421-.02-.436.351-.436.684.004 3.225.017 6.45-.011 9.673-.005.619.25.782.777.693.82-.138.965.247.939.992-.061 1.685.012 3.374-.136 5.059-.043.489-.114.738-.74.757-2.653.077-2.652.11-2.65-2.57 0-.25-.026-.504.007-.75.067-.505-.144-.634-.627-.63-2.714.016-5.428.016-8.141-.01-.514-.006-.655.188-.64.654.027.813-.022 1.63.046 2.44.06.732-.228.931-.908.874-.619-.052-1.247-.024-1.87-.006-.404.011-.624-.07-.634-.558a167.186 167.186 0 00-.194-5.529c-.031-.587.145-.81.721-.721.536.083.859-.212 1.154-.62 1.024-1.417 1.34-3.057 1.5-4.738.157-1.644.248-3.295.379-4.943.04-.497-.122-.745-.658-.794-.297-.027-.772-.002-.808-.449-.053-.649-.143-1.322.062-1.951.077-.235.454-.12.695-.121 2.121-.006 4.242-.004 6.364-.004v-.003zm-61.195-.003c2.366 0 4.732.029 7.096-.017.727-.014.975.153 1 .965.031.992-.109 1.645-1.225 1.621-.447-.01-.445.325-.445.651 0 3.361.015 6.722-.013 10.083-.005.644.351.684.787.754.969.158.962.22.877 1.875-.048.91-.667.552-1.059.56-1.667.037-3.337-.021-5.004.033-.709.023-.933-.231-.838-.915.03-.216.028-.442.002-.658-.069-.59.149-.884.741-.882.705.002.94-.34.928-1.1a323.806 323.806 0 01-.002-9.14c.009-.753-.216-.947-.916-.92-1.455.057-2.912.039-4.367.006-.547-.012-.73.15-.726.738.027 3.14.035 6.282-.003 9.423-.008.72.294.947.892.973 1.399.06.708 1.164.813 1.828.139.884-.566.608-.982.613-1.698.025-3.397-.004-5.095.027-.556.01-.881-.097-.783-.768.041-.276.034-.567.002-.846-.063-.546.113-.835.681-.817.835.025 1.03-.434 1.019-1.248-.042-3.109-.029-6.22-.006-9.329.005-.592-.096-.894-.754-.975-.773-.095-1.288-1.66-.836-2.35.191-.292.497-.18.755-.181 2.487-.008 4.974-.004 7.461-.004zm22.938-15.154c0-2.737-.002-2.747-2.496-2.439-.397.05-.789.208-1.157.375a1.436 1.436 0 00-.562.48c-.578.848-.496 2.456.135 3.209.506.603 2.959 1.148 3.761.641.737-.465.167-1.38.317-2.078.013-.06.002-.125.002-.188zm.545-5.327c1.685 0 3.012.014 4.338-.008.433-.007.652.093.595.569a3.87 3.87 0 00-.001.847c.07.67-.129 1.087-.89 1.07-.635-.013-.85.286-.844.935.032 3.173.034 6.346-.001 9.519-.007.705.201 1.05.923 1.1 1.43.103.679 1.2.784 1.857.133.838-.609.527-.99.542-1.726.062-3.455.043-5.181.111-.739.03-.993-.16-1.028-.956-.044-1 .134-1.605 1.274-1.603.414 0 .581-.27.554-.699-.034-.532.057-1.078-.028-1.598-.068-.415.432-1.113-.405-1.21-.723-.084-1.448-.194-1.802.834-.465 1.346-.988 2.694-1.918 3.829-1.04 1.268-2.582 1.73-4.145 1.224-.58-.188-.929-.466-.723-1.145.09-.296.104-.616.148-.926.093-.667.169-1.309 1.158-1.028.463.131.862-.152 1.127-.528.252-.355.467-.739.661-1.128.292-.587.806-1.211.756-1.779-.051-.579-.994-.629-1.463-1.04-1.527-1.343-1.931-3.052-1.504-4.945.47-2.08 1.911-3.215 3.963-3.652 1.656-.352 3.334-.117 4.642-.192zM3.882 34.257c1.29-.24 2.474-.47 3.662-.677 6.44-1.129 12.883-2.232 19.32-3.382 8.192-1.463 16.379-2.965 24.569-4.445 1.75-.316 3.506-.597 5.256-.917.47-.086.725-.049.815.53.176 1.136.429 2.26.683 3.382.118.525-.013.7-.566.751-4.955.466-9.905.98-14.86 1.449-4.893.463-9.792.878-14.686 1.34-4.954.47-9.905.98-14.86 1.456-2.87.276-5.744.524-8.617.772-.19.016-.422.148-.716-.259zm140.202 16.851c-1.855-.001-3.71-.021-5.565.011-.556.01-.767-.175-.687-.755.03-.216.036-.447-.001-.662-.124-.721.164-1.066.837-1.071.616-.005.81-.334.807-.964-.02-3.226-.031-6.453.007-9.68.008-.667-.234-.897-.793-.955-.343-.036-.795.012-.825-.513-.036-.623-.122-1.26.069-1.868.025-.08.321-.09.491-.091 3.741-.005 7.481.001 11.221-.01.487-.002.698.146.681.704a67.08 67.08 0 00-.003 3.416c.011.522-.143.775-.667.707-.206-.027-.418-.005-.627-.005-1.381 0-1.4.003-1.568-1.423-.049-.415-.192-.522-.565-.516-1.137.02-2.274.017-3.41-.01-.473-.01-.629.176-.61.669.031.79.029 1.582-.004 2.371-.021.495.137.667.61.657 1.286-.025 2.574.025 3.859-.019.603-.02.766.199.753.813-.05 2.374.246 2.062-1.957 2.08-.867.007-1.735.026-2.603.003-.448-.012-.643.118-.626.635.034.98.023 1.96.004 2.94-.009.494.182.67.643.66a60.424 60.424 0 013.231.002c.579.018.84-.19.77-.816-.096-.853.158-1.24 1.079-1.2 1.766.075 1.767.016 1.767 1.917 0 .728-.036 1.458.012 2.182.041.635-.182.815-.765.804-1.855-.031-3.71-.011-5.565-.013zm-30.025-37.011c1.803 0 3.609.036 5.41-.018.703-.021.869.225.836.912-.053 1.102-.037 2.208-.01 3.312.01.483-.121.707-.606.654-.268-.029-.541-.005-.811-.005-1.313 0-1.34.002-1.45-1.356-.038-.488-.151-.634-.635-.613a41.72 41.72 0 01-3.335.005c-.441-.015-.599.125-.594.567.011.852.018 1.704-.003 2.555-.013.52.233.613.666.605 1.262-.023 2.525.014 3.787-.017.545-.013.733.167.72.757-.047 2.414.224 2.081-1.945 2.1-.842.007-1.686.04-2.525-.012-.582-.037-.711.194-.686.755.042.913.038 1.83.001 2.743-.021.531.135.72.654.703a37.55 37.55 0 013.155.007c.601.03.906-.129.839-.8-.1-1.002.36-1.22 1.253-1.17 1.535.087 1.538.024 1.539 1.663.001.852-.03 1.705.013 2.555.026.522-.167.65-.62.648-3.788-.011-7.575-.015-11.363.003-.493.002-.637-.202-.605-.667.018-.25.033-.51-.003-.756-.096-.643.111-1.026.766-1.02.767.008.893-.422.884-1.14-.035-3.123-.038-6.246.003-9.369.01-.713-.202-1.109-.861-1.101-.667.008-.825-.342-.792-.936.016-.283.035-.572-.001-.85-.08-.62.206-.731.727-.724 1.864.026 3.728.01 5.592.01zm58.15 37.008c-1.805 0-3.611-.024-5.415.013-.605.013-.833-.132-.835-.826-.003-.943-.048-1.778 1.205-1.72.349.016.401-.307.401-.614.004-3.416.003-6.83.021-10.246.003-.604-.383-.625-.777-.684-.315-.046-.761.024-.797-.422-.054-.647-.147-1.32.077-1.95.034-.096.381-.096.583-.096 3.7-.003 7.4.013 11.1-.01.585-.004.771.15.736.789a35.673 35.673 0 00-.004 3.32c.024.605-.188.796-.726.719-.207-.03-.421-.006-.631-.006-1.288 0-1.312.003-1.502-1.304-.067-.464-.199-.643-.667-.629a54.703 54.703 0 01-3.248-.003c-.531-.016-.672.221-.648.739.031.725.028 1.455-.005 2.181-.027.58.186.78.733.767 1.263-.03 2.527.01 3.79-.022.553-.014.729.18.706.764-.091 2.335.378 2.121-2.014 2.133-.843.005-1.686.018-2.527-.014-.494-.02-.707.136-.686.692.036.947.023 1.897.007 2.846-.008.52.18.726.695.71a56.365 56.365 0 013.248-.004c.487.013.683-.13.718-.68.081-1.31.112-1.308 1.301-1.308 1.502 0 1.502 0 1.502 1.609 0 .822-.03 1.646.009 2.466.029.607-.144.82-.755.806-1.865-.043-3.731-.015-5.595-.016z" fill="#fff"/><path fill-rule="evenodd" clip-rule="evenodd" d="M159.19 37.541c-1.604-.043-1.604-.043-1.604 1.62v.754c0 2.838 0 2.838 2.808 2.416 1.372-.207 2.042-1.042 2.012-2.509-.028-1.37-.746-2.148-2.129-2.276-.359-.033-.724-.005-1.087-.005zm-2.303-2.974c1.714.094 3.725-.238 5.67.469 2.147.779 3.463 2.759 3.385 5.08-.086 2.61-1.764 4.268-3.811 4.887-1.25.379-2.521.287-3.786.257-.617-.014-.812.202-.765.803.032.405.045.821-.002 1.224-.106.896.128 1.45 1.116 1.411.482-.019.579.297.566.746-.059 2.067.25 1.626-1.546 1.66-1.516.027-3.033-.019-4.549.017-.58.014-.858-.144-.778-.786a3.535 3.535 0 00-.001-.848c-.069-.564.149-.819.695-.813.792.01.969-.443.961-1.205a454.402 454.402 0 01-.003-9.34c.007-.657-.154-.973-.828-1.045-.253-.027-.77.106-.797-.397-.035-.653-.137-1.329.081-1.96.091-.263.431-.156.665-.157 1.151-.006 2.304-.003 3.727-.003zm-56.673-17.601c-.448 0-.697.037-.931-.008-.695-.131-.965.1-.923.876.06 1.13.013 2.267.02 3.4.001.297-.093.663.404.65.876-.021 1.762.05 2.627-.06.579-.073 1.12-.362 1.44-.99 1.008-1.98.125-3.671-2.03-3.836-.271-.02-.542-.029-.607-.032zm-2.1-2.888c1.382.11 3.057-.187 4.71.241 2.349.608 3.902 2.519 3.924 4.905.025 2.693-1.369 4.64-3.795 5.296-1.276.345-2.58.38-3.884.321-.573-.026-.766.167-.7.746.04.343.05.7.004 1.042-.13.979.043 1.662 1.198 1.628.335-.01.524.233.486.637-.035.376-.025.76-.004 1.139.027.454-.161.61-.59.607a310.453 310.453 0 00-5.651.01c-.488.006-.653-.205-.627-.678.018-.316.036-.637-.004-.949-.067-.528.177-.793.637-.792.906.002 1.04-.495 1.028-1.328-.047-3.07-.039-6.14-.004-9.21.008-.728-.116-1.147-.912-1.145-.26 0-.703-.013-.71-.43-.01-.652-.174-1.327.099-1.95.045-.102.389-.085.594-.086 1.308-.007 2.615-.004 4.2-.004zM61.138 54.656c.672-.022.822-.339.786-.99a171.15 171.15 0 01-.253-7.042c-.013-.983.653-1.775 1.047-2.634.83-1.813 1.714-3.6 2.644-5.541.268.637.018 1.094-.079 1.527-1.018 4.555-2.05 9.108-3.118 13.651-.179.766.037 1.005.775 1 .892-.004 1.8-.035 2.673.11.755.123.892-.21 1.003-.81.668-3.614 1.36-7.223 2.061-10.933.302.478.168.9.118 1.3-.406 3.187-.8 6.377-1.258 9.557-.117.815.066 1.118.908 1.087.763-.029 1.536.03 2.295.13.712.093.877-.173.9-.856.128-3.986.305-7.971.469-11.957.008-.209-.043-.435.18-.652.028.395.08.747.076 1.099-.052 3.89.486 7.754.53 11.64.006.502.036.88.723.908 2.494.105 4.987.255 7.477.42.72.047.843-.09.513-.783-1.686-3.536-3.324-7.096-4.974-10.65-.016-.037.037-.107.109-.294.71.658 1.12 1.469 1.6 2.21a928.212 928.212 0 015.872 9.195c.252.4.541.517.978.542 2.06.117 4.117.272 6.177.389.351.02.731.048.995-.337.319-.466-.113-.704-.288-.96-2.62-3.848-5.265-7.678-7.9-11.515-.025-.035-.003-.103-.003-.284 1.487 1.892 2.914 3.7 4.333 5.514 1.424 1.82 2.84 3.647 4.26 5.47.345.441.582.681 1.053.005.858-1.234.908-1.181-.07-2.407-2.381-2.99-4.75-5.988-7.126-8.982-.153-.192-.344-.368-.128-.702 1.564 1.41 2.89 3.028 4.3 4.562 1.462 1.591 2.894 3.212 4.346 4.814.213.233.404.622.932.301-.737 1.945-1.48 3.885-2.204 5.835-.175.47-.524.346-.845.314-3.282-.326-6.563-.657-9.843-.995-4.719-.484-9.437-.977-14.155-1.462-2.63-.27-5.26-.53-7.89-.794zM74.665 9.473c-2.785.577-5.31 1.59-7.207 3.772-1.042 1.198-1.752 2.543-1.773 4.142-.04 3.22-.126 6.445-.013 9.662.108 3.114 2.02 5.145 4.647 6.62 1.326.746 2.759 1.23 4.405 1.567-.701.415-1.302.264-1.862.25-3.353-.092-6.456-.93-9.019-3.176-1.865-1.636-2.78-3.647-2.657-6.18.123-2.509.071-5.032-.04-7.544-.154-3.527 1.694-5.853 4.56-7.533 2.444-1.432 5.17-1.907 8-1.844.335.007.666.022.959.264zM62.109.43c-.192.647-.5.832-.978.9-5.792.83-11.579 1.694-17.372 2.52-5.251.75-10.508 1.457-15.761 2.195-2.445.344-4.885.723-7.328 1.068-.366.051-.891.348-1.073-.119-.2-.511-.199-1.137-.18-1.71.012-.338.4-.203.61-.227 2.935-.336 5.873-.65 8.81-.973 5.15-.566 10.298-1.14 15.449-1.7 5.06-.55 10.122-1.084 15.182-1.63.845-.09 1.689-.207 2.64-.325zm-1.034 35.721L4.853 39.424c1.193-.5 2.46-.507 3.694-.58 5.631-.336 11.237-.974 16.86-1.412 5.928-.461 11.849-1.024 17.774-1.527 5.342-.454 10.687-.866 16.025-1.349 1.11-.1 1.265.935 1.932 1.343l-.063.252zM67.97 6.267c-2.013-.001-4.027-.02-6.04.01-.571.009-.827-.155-.789-.834.045-.793.04-1.594 0-2.388-.026-.548.18-.678.63-.676 4.118.013 8.236.014 12.353.004.403-.001.61.1.596.6-.025.863-.02 1.727.003 2.59.017.58-.229.711-.712.705-2.013-.024-4.027-.01-6.04-.011zM2.911 46.431c1.418-.368 2.804-.084 4.182.01 9.86.673 19.718 1.4 29.576 2.108 5.884.423 11.768.834 17.65 1.277.344.026.93-.26.988.496.045.582-.084.852-.744.791a7843.35 7843.35 0 00-23.99-2.194c-6.642-.596-13.286-1.168-19.928-1.76-2.58-.23-5.156-.484-7.734-.728z" fill="#fff"/><path fill-rule="evenodd" clip-rule="evenodd" d="M62.126 35.448l19.732 4.06-2.934-4.959c1.57.732 2.892 1.36 4.226 1.961.34.153.317.398.3.67-.093 1.574-.198 3.146-.274 4.72-.036.739-.489.362-.764.273-3.548-1.144-7.091-2.306-10.635-3.466-3.224-1.056-6.446-2.117-9.669-3.175l.018-.084zM5.822 48.538c.478-.47.794-.324 1.085-.303 5.44.407 10.877.823 16.317 1.233 4.23.319 8.466.567 12.688.982 1.565.154 2.987 1.041 4.47 1.603.75.284 1.547.475 2.317 1.019L5.822 48.538zm67.461-32.464c-.634.367-1.162.608-1.605.941-1.284.97-1.792 2.242-1.725 3.738.049 1.106.089 2.217.044 3.323-.08 1.97.933 3.291 2.849 4.122.3.13.601.253.9.383.012.006.005.047.006.072-2.885.402-6.156-1.822-5.794-4.672.162-1.27-.015-2.573.019-3.86.064-2.439 2.587-4.428 5.306-4.047zm1.441-9.614c-.252.365-.618.194-.925.193-2.864-.004-5.71.27-8.182 1.865-1.325.855-2.654.592-4.007.683-.3.02-.452-.121-.445-.437a4.372 4.372 0 00-.002-.28c-.083-2.19-.083-2.192 2.008-2.19 3.598.002 7.197.005 10.795.019.25 0 .546-.141.758.147zM57.256 41.043c-.571.854-1.138 1.172-2.271.828-3.173-.963-6.036-.188-8.565 1.805-.239.188-.483.371-.81.622 2.025-3.362 7.432-4.857 11.646-3.255zM34.935 44.33c2.773-2.592 6.53-2.647 9.413-.132.178.154.46.317.161.6-.252.237-.457.675-.908.37-.28-.188-.53-.422-.803-.62-2.199-1.586-4.49-1.655-6.857-.444-.5.255-.5.255-1.006.225zm16.499 8.738c-5.075.093-9.802-1.478-14.557-2.92l14.557 2.92zM21.35 45.273c2.914-2.742 6.063-3.703 9.748-2.252.088.035.2.042.262.102.216.209.807.141.633.607-.178.476-.581.286-.947.106-1.694-.835-3.462-.999-5.334-.746-1.668.225-2.885 1.21-4.362 2.183zM19.41 7.946c3.77-.512 35.017-5.054 38.789-5.567l.028.257c-3.77.52-35.013 5.07-38.782 5.592a54.161 54.161 0 00-.036-.282zm65.019 31.478c.698.616 1.56 1.124 1.94 1.95-.783-.56-1.471-1.183-1.94-1.95zm42.54-18.523l-.038-.974c.299.221.398.51.394.917l-.356.057zm.17 2.016l-.06-.1.058-.032.04.065-.038.067z" fill="#fff"/><path fill-rule="evenodd" clip-rule="evenodd" d="M127.162 22.913l-.083-.085a3.62 3.62 0 00.054-.039c.046.033.055.074.029.124zm-11.401 23.816c-.1.748-.672 1.073-1.301 1.272-1.026.323-2.081.149-3.123.194-.451.02-.456-.295-.456-.625-.001-.977.034-1.957-.012-2.932-.03-.639.194-.846.772-.78.356.04.719.007 1.078.007v.006c.33 0 .659-.003.989.001 1.893.023 2.256 1.326 2.053 2.857zm-3.19-9.32c.444.01.89.004 1.329.143.994.315 1.363.79 1.353 1.816-.008.853-.581 1.64-1.447 1.766-.826.12-1.673.08-2.511.111-.398.014-.406-.276-.406-.574v-1.514c-.009-1.776-.009-1.782 1.682-1.748zm4.512 4.962c1.759-1.584 2.194-3.668 1.131-5.48-.931-1.584-2.414-2.248-4.094-2.3-2.567-.08-5.138-.02-7.708-.014-.172 0-.469.009-.498.093-.214.634-.122 1.302-.077 1.954.03.418.419.417.703.426.747.025.907.438.899 1.162a415.39 415.39 0 00.001 9.272c.008.756-.154 1.206-.939 1.2-.578-.005-.778.306-.706.89.038.311.021.631.003.946-.026.457.172.593.59.59 2.727-.021 5.459.072 8.18-.062 1.849-.092 3.526-.804 4.346-2.772.977-2.341.366-4.28-1.831-5.906zM88.588 26.257c-.1.748-.672 1.073-1.3 1.271-1.026.325-2.082.15-3.124.196-.45.02-.456-.296-.456-.626 0-.977.034-1.957-.012-2.932-.03-.639.194-.846.772-.78.356.04.719.007 1.078.007v.006c.33 0 .66-.003.99.001 1.891.023 2.255 1.326 2.052 2.857zm-3.19-9.32c.445.01.89.004 1.329.143.994.315 1.363.79 1.353 1.815-.008.854-.581 1.64-1.447 1.767-.826.12-1.673.08-2.51.11-.399.016-.407-.275-.407-.572v-1.515c-.009-1.776-.009-1.782 1.682-1.747zM89.91 21.9c1.76-1.584 2.195-3.668 1.131-5.48-.93-1.584-2.414-2.248-4.093-2.3-2.568-.08-5.14-.02-7.709-.014-.172 0-.47.009-.497.092-.215.635-.123 1.303-.077 1.955.03.418.419.417.702.426.748.026.907.438.899 1.162-.033 3.09-.034 6.182.001 9.272.008.756-.153 1.206-.94 1.2-.577-.005-.777.306-.705.89.037.311.021.631.003.946-.026.457.172.593.59.59 2.727-.021 5.46.072 8.181-.062 1.848-.091 3.525-.804 4.345-2.772.976-2.34.366-4.28-1.831-5.905z" fill="#fff"/></svg>