<svg width="146" height="117" fill="none" xmlns="http://www.w3.org/2000/svg"><path fill-rule="evenodd" clip-rule="evenodd" d="M15.344 71.699c-.341.422-.859.705-1.554.854a19.12 19.12 0 01-2.32.335l-2.341.223c-.682.074-1.366.18-2.047.316a5.942 5.942 0 00-1.847.688 3.825 3.825 0 00-1.335 1.32c-.34.558-.511 1.282-.511 2.174 0 1.412.44 2.46 1.316 3.142.877.681 2.084 1.022 3.62 1.022 1.583 0 2.839-.291 3.764-.873.927-.583 1.634-1.252 2.122-2.008.487-.756.797-1.487.932-2.194.133-.705.201-1.182.201-1.43v-3.57zm0 7.062h-.073c-.22.57-.536 1.11-.95 1.618-.415.508-.92.96-1.518 1.357a7.48 7.48 0 01-2.029.93A8.767 8.767 0 018.287 83c-1.998 0-3.545-.441-4.642-1.32C2.548 80.8 2 79.443 2 77.61c0-1.116.219-2.027.658-2.733a5.023 5.023 0 011.663-1.673c.67-.409 1.413-.7 2.23-.873a21.711 21.711 0 012.358-.372l2.157-.186c1-.074 1.786-.191 2.359-.353.572-.161 1.005-.385 1.298-.669.292-.285.475-.651.548-1.097.073-.446.11-1.003.11-1.673 0-.52-.098-1.003-.293-1.45a3.265 3.265 0 00-.913-1.19c-.416-.346-.952-.618-1.61-.817-.657-.198-1.462-.297-2.413-.297-1.681 0-3.04.421-4.075 1.263-1.037.843-1.604 2.12-1.7 3.829h-1.39c.097-2.105.761-3.685 1.993-4.739C6.21 63.527 7.96 63 10.226 63c2.267 0 3.917.452 4.954 1.357 1.035.905 1.553 2.088 1.553 3.55V79.02c0 .273.006.546.018.819.013.273.055.52.129.743.073.223.194.404.365.539.17.137.414.204.732.204a6.51 6.51 0 001.023-.11v1.188c-.366.1-.744.15-1.134.15-.56 0-1.005-.075-1.334-.224-.33-.148-.58-.347-.75-.594a2.215 2.215 0 01-.347-.874 6.085 6.085 0 01-.09-1.096V78.76zm14.063 2.732c1.24 0 2.313-.232 3.218-.695a6.37 6.37 0 002.234-1.868c.583-.782 1.017-1.69 1.302-2.729a12.41 12.41 0 00.429-3.313 12.4 12.4 0 00-.41-3.168 8.685 8.685 0 00-1.266-2.783A6.472 6.472 0 0032.7 64.96c-.906-.5-2.003-.751-3.293-.751-1.266 0-2.345.244-3.238.732a6.257 6.257 0 00-2.177 1.94c-.559.806-.962 1.728-1.21 2.766a13.907 13.907 0 00-.372 3.24c0 1.124.112 2.204.335 3.241.223 1.038.602 1.954 1.135 2.747.534.794 1.252 1.428 2.159 1.904.905.476 2.029.714 3.368.714zM22.373 67.76h.111c.149-.464.396-.976.743-1.538a6.426 6.426 0 011.373-1.556c.57-.476 1.256-.873 2.06-1.19.804-.317 1.726-.477 2.766-.477 1.46 0 2.728.27 3.804.806a7.69 7.69 0 012.673 2.16c.705.904 1.231 1.954 1.577 3.15a13.47 13.47 0 01.52 3.772c0 1.44-.174 2.759-.521 3.955-.347 1.195-.875 2.228-1.581 3.094-.707.866-1.6 1.544-2.679 2.032-1.08.488-2.35.733-3.813.733-1.589 0-3.003-.342-4.243-1.026-1.24-.683-2.145-1.794-2.715-3.332h-.074L22.373 89H21V63.44h1.373v4.32zM47.71 82h-1.42V64.22H39V63h16v1.22h-7.29V82zM3 91h1.428v10.387L16.333 91H18.4l-8.45 7.393L19 110h-1.953L8.822 99.465l-4.394 3.659V110H3V91zm17.368 10c0 1.14.157 2.237.469 3.29a9 9 0 001.369 2.806 6.699 6.699 0 002.233 1.952c.887.483 1.908.725 3.06.725 1.154 0 2.174-.242 3.062-.725a6.706 6.706 0 002.233-1.952 9.028 9.028 0 001.37-2.806c.31-1.053.468-2.15.468-3.29 0-1.14-.157-2.236-.469-3.29a9.037 9.037 0 00-1.369-2.806 6.709 6.709 0 00-2.233-1.952c-.888-.483-1.908-.725-3.061-.725s-2.174.242-3.061.725a6.702 6.702 0 00-2.233 1.952 9.008 9.008 0 00-1.37 2.806 11.519 11.519 0 00-.468 3.29zM19 101c0-1.362.186-2.646.558-3.847.372-1.202.918-2.261 1.639-3.178a7.825 7.825 0 012.666-2.176C24.918 91.267 26.13 91 27.5 91c1.369 0 2.58.267 3.637.799a7.817 7.817 0 012.666 2.176c.72.917 1.266 1.976 1.639 3.178A12.94 12.94 0 0136 101c0 1.363-.186 2.652-.558 3.866-.373 1.214-.92 2.274-1.64 3.179a7.92 7.92 0 01-2.665 2.156c-1.057.532-2.268.799-3.637.799-1.369 0-2.582-.267-3.637-.799a7.928 7.928 0 01-2.666-2.156c-.72-.905-1.267-1.965-1.639-3.179A13.124 13.124 0 0119 101zm34.6-.5H41.4v9.5H40V91h1.401v8.28H53.6V91H55v19h-1.4v-9.5zm12.11 9.5h-1.42V92.22H57V91h16v1.22h-7.29V110zm18.697-.507c1.24 0 2.313-.232 3.218-.695a6.382 6.382 0 002.234-1.868c.583-.782 1.017-1.691 1.302-2.729a12.41 12.41 0 00.429-3.313 12.4 12.4 0 00-.41-3.168 8.685 8.685 0 00-1.266-2.783A6.472 6.472 0 0087.7 92.96c-.906-.5-2.003-.751-3.293-.751-1.266 0-2.345.244-3.238.732a6.257 6.257 0 00-2.177 1.94c-.559.806-.962 1.728-1.21 2.766a13.908 13.908 0 00-.372 3.241c0 1.123.112 2.203.335 3.24.223 1.039.602 1.954 1.135 2.747.534.794 1.252 1.428 2.159 1.904.905.476 2.029.714 3.368.714zm-7.034-13.732h.111c.149-.464.396-.976.743-1.538a6.426 6.426 0 011.373-1.556c.57-.476 1.256-.873 2.06-1.19.804-.317 1.726-.477 2.766-.477 1.46 0 2.728.27 3.804.806a7.69 7.69 0 012.673 2.16c.705.904 1.231 1.954 1.577 3.15a13.47 13.47 0 01.52 3.772c0 1.44-.174 2.759-.521 3.955-.347 1.196-.875 2.228-1.582 3.094-.706.866-1.6 1.544-2.678 2.032-1.08.488-2.35.733-3.813.733-1.589 0-3.003-.342-4.243-1.026-1.24-.683-2.144-1.794-2.715-3.332h-.074L77.373 117H76V91.44h1.373v4.32zm29.971 3.938c-.341.422-.859.705-1.554.854-.695.149-1.468.261-2.321.335l-2.34.223a23.73 23.73 0 00-2.047.316 5.939 5.939 0 00-1.847.687 3.836 3.836 0 00-1.335 1.32c-.34.559-.511 1.283-.511 2.175 0 1.412.44 2.46 1.316 3.142.877.681 2.084 1.022 3.619 1.022 1.584 0 2.84-.291 3.766-.873.926-.583 1.633-1.252 2.121-2.008.487-.756.797-1.487.932-2.194.133-.705.201-1.182.201-1.43v-3.57zm0 7.062h-.073a5.905 5.905 0 01-.951 1.618 6.78 6.78 0 01-1.517 1.357 7.449 7.449 0 01-2.029.929 8.753 8.753 0 01-2.487.335c-1.998 0-3.545-.441-4.642-1.32-1.097-.879-1.645-2.237-1.645-4.071 0-1.115.219-2.026.658-2.732a5.029 5.029 0 011.663-1.673 7.04 7.04 0 012.23-.873 21.848 21.848 0 012.358-.372l2.157-.186c.999-.074 1.786-.191 2.359-.353.572-.161 1.005-.385 1.298-.669.292-.285.475-.651.548-1.097.073-.446.109-1.003.109-1.673a3.58 3.58 0 00-.292-1.45 3.264 3.264 0 00-.914-1.19c-.415-.346-.951-.618-1.608-.817-.658-.198-1.463-.297-2.414-.297-1.681 0-3.04.421-4.076 1.263-1.036.843-1.603 2.12-1.7 3.829h-1.39c.098-2.105.762-3.685 1.994-4.739 1.23-1.053 2.98-1.58 5.246-1.58 2.267 0 3.917.452 4.953 1.357 1.036.905 1.554 2.088 1.554 3.55v11.114c0 .273.006.547.018.819.013.273.055.52.129.743.073.223.194.404.365.539.171.137.414.205.732.205.242 0 .585-.037 1.023-.112v1.189c-.366.1-.744.149-1.134.149-.561 0-1.005-.074-1.334-.223-.329-.148-.58-.347-.749-.594a2.224 2.224 0 01-.348-.874 6.127 6.127 0 01-.091-1.096v-1.005zM114 91h1.428v10.387L127.333 91h2.066l-8.451 7.393L130 110h-1.953l-8.225-10.535-4.394 3.659V110H114V91z" fill="#575756"/><path fill-rule="evenodd" clip-rule="evenodd" d="M137.711 110h-1.422V92.22H129V91h16v1.22h-7.289V110z" fill="#575756"/><mask id="a" maskUnits="userSpaceOnUse" x="1" y="0" width="144" height="117"><path fill-rule="evenodd" clip-rule="evenodd" d="M1 117h144V0H1v117z" fill="#fff"/></mask><g mask="url(#a)" fill-rule="evenodd" clip-rule="evenodd" fill="#E03435"><path d="M73 73h63V10H73v63z"/><path d="M64.052 80.948h78.827V2.12H64.052v78.827zM62 83h83V0H62v83z"/></g></svg>