<svg width="156" height="77" fill="none" xmlns="http://www.w3.org/2000/svg"><path fill-rule="evenodd" clip-rule="evenodd" d="M23.598 5.908l-10.122 5.075a1.109 1.109 0 00-.047.026l-6.781 4.032S1 18.626 1 20.131v.924c0 .846.266 3.075.473 3.69.104.305.814 2.727.902 3.184.01.056.029.11.05.161l1.023 2.341c.12.277.394.455.694.454h.087c.433 0 2.186-1.063 2.492-1.431a.802.802 0 01.21-.173c.79-.474 4.259-2.543 7.79-4.41 1.79-.946 7.62-4.158 10.604-5.552 1.763-.823 7.546-3.013 10.19-4.006a.995.995 0 011.343.935v6.426c0 1.235-.137 2.75.412 5.021.564 2.333 1.546 2.906 2.005 3.132a.736.736 0 00.25.071l.173.018a.754.754 0 00.373-.053c1.268-.532 2.781-2.747 3.39-3.417 1.134-1.251 1.856-2.021 3.459-3.468.401-.362 1.596-1.242 1.937-1.526.91-.758 1.718-1.266 2.007-1.457.914-.603.95-.693 2.116-1.347.35-.197.69-.426 1.134-.596a66.589 66.589 0 001.37-.56.74.74 0 01.137-.041c.442-.097 1.066-.464 1.674-.058.341.227.613 2.913.663 3.472.12 1.365.355 2.798.51 3.651.365 2.02.709 5.484 2.833 5.484 2.374 0 2.886-.849 4.23-1.886.43-.332 1.425-1.07 1.717-1.284.277-.203 4.823-3.772 5.083-3.922.485-.278 1.265-1.09 1.65-1.352.483-.328 3.388-2.427 3.388-2.427l.073.117c.028.12 1.096 2.598 2.064 4.34.089.16 1.398 2.16 1.546 2.331 1.39 1.614 3.843 3.967 6.306 3.967 0 0 1.732.105 2.537 0 .756-.098 3.918-1.47 4.305-1.64a.786.786 0 00.076-.037l5.847-3.391a.75.75 0 00.064-.042l4.859-3.515s7.785-6.245 9.458-7.396c1.084-.745 3.49-2.72 5.352-3.17a.926.926 0 01.099-.018l.786-.094a.767.767 0 01.108-.007c.933.014 1.527.361 1.352.59-.178.231-.997.981-1.823 1.537-.466.314-5.601 4.082-5.667 4.145-2.211 2.076-1.607 1.267-1.64 4.712-.013 1.24 1.052 5.032 1.239 5.686a.758.758 0 00.081.181c.466.79.759 2.46 1.791 2.46.432 0 7.572-4.465 7.956-4.742.549-.395 4.149-2.471 5.704-3.143a.754.754 0 01.946.308l3.028 5.081-.108.067c.688.366 1.538 2.544 2.306 2.544h.23c.77 0 2.561-2.467 2.96-3.16.231-.4 1.883-4 1.883-4.24l.333-2.009a.817.817 0 00.012-.148c-.025-1.174-.647-2.01-1.01-2.711a.756.756 0 01.387-1.047c.85-.345 2.246-.938 2.447-1.045.992-.53 7.216-2.816 9.555-3.076a.76.76 0 00.578-.377c.271-.473.47-.819.5-1.724.032-.978.11-1.605.111-2.644l-.001-.038c-.014-.28-.198-3.851-.486-5.276-.27-1.338-.705-2.427-2.334-2.453a.815.815 0 00-.121.007l-2.525.334a.68.68 0 00-.129.028c-.671.214-6.531 2.082-7.014 2.247-.904.308-4.651 1.668-5.208 1.946-.175.088-1.826.818-2.329 1.04a.748.748 0 01-.303.063h-.188c-.019 0-6.199-5.311-9.458-5.432a.804.804 0 01-.186-.032c-.387-.108-1.915-.182-2.272-.198a.75.75 0 00-.148.008l-1.639.252a.795.795 0 00-.235.078c-.573.284-1.59.542-2.277.857-.468.214-1.596 1.013-2.018 1.329a64.687 64.687 0 01-1.944 1.404c-.388.257-3.703 2.992-3.703 2.992l-1.85 1.445a1.13 1.13 0 00-.058.05l-1.685 1.61-1.672 1.625a.607.607 0 01-.053.047c-.271.218-2.484 1.986-3.246 2.361-1.095.538-2.309 1.625-3.306 2.235-.193.118-2.892 1.597-3.603 1.937-.885.422-3.074 1.308-4.23 1.308h-2.075c-1.23 0-3.82-1.006-4.082-1.457-.26-.453-.26-.632-.26-.632.053-.332.185-.647.392-.912.8-1.022 2.208-2.035 2.783-2.448.75-.538 3.413-1.802 4.467-2.11 1.668-.488 3.438-1.074 5.347-1.229 1.707-.139 4.252-.578 5.88-.578.549-.822 1.961-7.586 1.961-9.597l-.006-.207-5.143-.42A.735.735 0 0098.972 1l-3.889.052c-.986 0-4.608.562-5.293.82-.597.224-1.582.613-2.21.79-.895.251-1.323.582-2.16.84-.907.28-3.14 1.48-4.118 1.999-1.237.654-2.58 1.547-3.745 2.256-1.272.775-2.381 1.647-3.492 2.627a35.398 35.398 0 01-2.832 2.258c-.915.653-1.675 1.217-2.275 1.639-.6.422-1.727 1.275-1.727 1.275s-3.246 2.082-3.475 2.216c-.23.135-.336.144-.621.188-.285.045-.45-.027-.45-.027-.998 0-1.049-5.404-1.157-6.587-.224-2.45.029-5.091-2.648-5.091h-.577c-4.31 0-6.362 1.551-9.241 2.873-.295.135-3.445 2.28-3.579 2.424-.175.187-.928.815-1.688 1.402a1.1 1.1 0 01-1.773-.849c-.042-1.87-.145-3.916-.33-5.495-.249-2.128-.092-5.443-2.413-5.443h-.461c-.448.025-1.406.037-3.228.578-1.823.541-4.854 1.565-5.854 1.877" fill="#E0171C"/><mask id="a" maskUnits="userSpaceOnUse" x="0" y="37" width="12" height="15"><path fill-rule="evenodd" clip-rule="evenodd" d="M0 37.008h11.567V51.85H0V37.01z" fill="#fff"/></mask><g mask="url(#a)"><path fill-rule="evenodd" clip-rule="evenodd" d="M8.834 42.126l-2.508 9.723H5.242l-2.463-9.723v9.723H0V37.01h3.615l2.169 8.543 2.237-8.544h3.546V51.85H8.835v-9.723z" fill="#AAABB1"/></g><path fill-rule="evenodd" clip-rule="evenodd" d="M18 39.435c-1.418 0-1.899 2.174-1.899 5.065 0 2.848.48 5.065 1.899 5.065 1.418 0 1.899-2.217 1.899-5.065 0-2.891-.48-5.065-1.899-5.065zM18 37c3.51 0 5 3.24 5 7.5 0 4.261-1.49 7.5-5 7.5-3.534 0-5-3.239-5-7.5 0-4.26 1.466-7.5 5-7.5zm6 7.5c0-4.326 1.5-7.5 4.976-7.5 2.572 0 3.476 1.87 3.976 3.413l-2.38.804c-.334-1.108-.715-1.782-1.596-1.782-1.429 0-1.905 2.109-1.905 5.065 0 2.956.476 5.065 1.905 5.065.976 0 1.405-.913 1.62-2.109l2.404.805C32.548 49.913 31.62 52 28.976 52 25.5 52 24 48.804 24 44.5zm14.038 1.788l-1.01 1.889V52H34V37h3.029v6.926L40.394 37h3.317l-3.918 7.061L44 52h-3.437l-2.525-5.712z" fill="#AAABB1"/><path fill-rule="evenodd" clip-rule="evenodd" d="M48 39.435c-1.418 0-1.899 2.174-1.899 5.065 0 2.848.48 5.065 1.899 5.065 1.418 0 1.899-2.217 1.899-5.065 0-2.891-.48-5.065-1.899-5.065zM48 37c3.51 0 5 3.24 5 7.5 0 4.261-1.49 7.5-5 7.5-3.534 0-5-3.239-5-7.5 0-4.26 1.466-7.5 5-7.5zm11.184 12.571c1.143 0 1.678-.72 1.678-2.001 0-1.102-.535-2.002-1.678-2.002h-1.12v4.003h1.12zm-.098-6.41c1.144 0 1.557-.764 1.557-1.866 0-1.08-.413-1.867-1.557-1.867h-1.021v3.734h1.021zM55 37h4.889c2.7 0 3.892 1.754 3.892 3.823 0 1.889-.973 3.059-2.383 3.44C62.93 44.49 64 46.109 64 47.954 64 50.244 62.857 52 60.06 52H55V37zm10 7.5c0-4.326 1.5-7.5 4.976-7.5 2.572 0 3.476 1.87 3.976 3.413l-2.38.804c-.334-1.108-.715-1.782-1.596-1.782-1.429 0-1.905 2.109-1.905 5.065 0 2.956.476 5.065 1.905 5.065.976 0 1.405-.913 1.62-2.109l2.404.805C73.548 49.913 72.62 52 69.976 52 66.5 52 65 48.804 65 44.5zm14.038 1.788l-1.01 1.889V52H75V37h3.029v6.926L81.394 37h3.318l-3.919 7.061L85 52h-3.437l-2.525-5.712zM89.008 37v8.703L92.016 37H95v15h-2.984v-8.995L88.818 52H86V37h3.008zm9.058-2.863L99.582 33c.449.636 1.184.977 1.918.977s1.469-.34 1.895-.977l1.539 1.137c-.781 1.022-2.036 1.658-3.434 1.658-1.373 0-2.653-.636-3.434-1.658zm1.942 2.704v8.795l3.008-8.795H106V52h-2.984v-9.09L99.818 52H97V36.841h3.008zM111 44.5c0-4.326 1.5-7.5 4.976-7.5 2.572 0 3.476 1.87 3.976 3.413l-2.381.804c-.333-1.108-.714-1.782-1.595-1.782-1.428 0-1.905 2.109-1.905 5.065 0 2.956.477 5.065 1.905 5.065.976 0 1.405-.913 1.62-2.109l2.404.805c-.452 1.652-1.381 3.739-4.024 3.739C112.5 52 111 48.804 111 44.5zm15-5.065c-1.419 0-1.899 2.174-1.899 5.065 0 2.848.48 5.065 1.899 5.065 1.418 0 1.899-2.217 1.899-5.065 0-2.891-.481-5.065-1.899-5.065zM126 37c3.509 0 5 3.24 5 7.5 0 4.261-1.491 7.5-5 7.5-3.533 0-5-3.239-5-7.5 0-4.26 1.467-7.5 5-7.5zm18.064 7.5c0-2.891-.478-5.065-1.822-5.065-1.343 0-1.798 2.174-1.798 5.065 0 2.848.455 5.065 1.798 5.065 1.344 0 1.822-2.217 1.822-5.065zm2.936 0c0 4.26-1.434 7.5-4.758 7.5-3.073 0-4.507-2.761-4.712-6.522h-1.662v6.26H133v-14.5h2.868v5.849h1.708c.296-3.544 1.73-6.087 4.666-6.087 3.324 0 4.758 3.24 4.758 7.5zm1.98 3.516c.529.893 1.265 1.546 2.324 1.546 1.335 0 1.727-.87 1.727-2.025 0-1.372-.922-1.98-1.911-1.98h-1.519V43.16h1.312c1.173 0 1.91-.631 1.91-1.85 0-1.285-.598-1.872-1.657-1.872-.805 0-1.611.522-2.095 1.393l-1.887-1.459c.967-1.589 2.555-2.373 4.281-2.373 2.486 0 4.327 1.22 4.327 3.919 0 1.502-.966 2.983-2.692 3.33 1.864.284 2.9 1.742 2.9 3.506 0 2.525-1.75 4.245-4.535 4.245-2.048 0-3.636-1.045-4.465-2.373l1.98-1.611zM28.989 67.827L27.152 73H24l3.334-7.646L24.181 58h3.152l1.655 4.903L30.644 58h3.174l-3.174 7.331L34 73h-3.152l-1.86-5.173zM44 58l-3.607 11.554C39.525 72.227 38.383 73 36.534 73c-.753 0-1.37-.154-1.85-.398l.64-2.32c.274.156.571.222.89.222.548 0 1.05-.354 1.416-1.392l.274-.795L34 58h3.082l2.169 6.362L40.986 58H44z" fill="#AAABB1"/><mask id="b" maskUnits="userSpaceOnUse" x="42" y="58" width="11" height="18"><path fill-rule="evenodd" clip-rule="evenodd" d="M42.293 58.152h10.522V76H42.293V58.152z" fill="#fff"/></mask><g mask="url(#b)"><path fill-rule="evenodd" clip-rule="evenodd" d="M45.77 70.713h2.984V60.66h-1.75l-.067 1.718c-.18 4.812-.673 7.365-1.167 8.336zm-2.625 0c.427-.723 1.077-3.118 1.324-8.901l.157-3.66h6.933v12.561h1.256V76h-2.49v-2.779h-5.542V76h-2.49v-5.287h.852z" fill="#AAABB1"/></g><path fill-rule="evenodd" clip-rule="evenodd" d="M59 60.435c-1.418 0-1.899 2.174-1.899 5.065 0 2.848.48 5.065 1.899 5.065 1.418 0 1.899-2.217 1.899-5.065 0-2.891-.48-5.065-1.899-5.065zM59 58c3.51 0 5 3.24 5 7.5 0 4.261-1.49 7.5-5 7.5-3.534 0-5-3.239-5-7.5 0-4.26 1.466-7.5 5-7.5zm14.413 8.388h-.44V73H70.05v-6.612h-.464L67.246 73H64l3.385-7.714L64.278 58h3.107l2.225 6.207h.441V58h2.921v6.207h.418L75.614 58h3.107l-3.107 7.264L79 73h-3.246l-2.341-6.612zm11.603.135h-3.032V73H79V58h2.984v6.05h3.032V58H88v15h-2.984v-6.477zM93.008 58v8.703L96.016 58H99v15h-2.984v-8.995L92.818 73H90V58h3.008zm13.031 9.288l-1.01 1.889V73H102V58h3.029v6.926L108.395 58h3.317l-3.918 7.061L112 73h-3.437l-2.524-5.712z" fill="#AAABB1"/><path fill-rule="evenodd" clip-rule="evenodd" d="M116 60.435c-1.418 0-1.899 2.174-1.899 5.065 0 2.848.481 5.065 1.899 5.065 1.418 0 1.899-2.217 1.899-5.065 0-2.891-.481-5.065-1.899-5.065zM116 58c3.509 0 5 3.24 5 7.5 0 4.261-1.491 7.5-5 7.5-3.534 0-5-3.239-5-7.5 0-4.26 1.466-7.5 5-7.5zm10.184 12.571c1.143 0 1.679-.72 1.679-2.001 0-1.102-.536-2.002-1.679-2.002h-1.119v4.003h1.119zm-.097-6.41c1.142 0 1.557-.764 1.557-1.866 0-1.08-.415-1.867-1.557-1.867h-1.022v3.734h1.022zM122 58h4.89c2.7 0 3.891 1.754 3.891 3.823 0 1.889-.973 3.059-2.384 3.44 1.533.225 2.603 1.844 2.603 3.69 0 2.293-1.143 4.047-3.94 4.047H122V58z" fill="#AAABB1"/></svg>