<svg width="33" height="33" fill="none" xmlns="http://www.w3.org/2000/svg"><path fill-rule="evenodd" clip-rule="evenodd" d="M16.474.5C7.678.5.426 7.656.426 16.452c0 8.795 7.252 16.048 16.048 16.048s15.952-7.253 15.952-16.048C32.426 7.656 25.27.5 16.474.5z" fill="#91E6A9"/><path fill-rule="evenodd" clip-rule="evenodd" d="M32.426 16.452c0-8.796-7.178-15.952-16-15.952v32c8.822 0 16-7.253 16-16.048z" fill="#26BFA6"/><path fill-rule="evenodd" clip-rule="evenodd" d="M21.343 11.5l-4.417 4.394-1.473 1.464-2.945-2.929-2.082 2.071 5.027 5 1.473-1.465 6.5-6.464-2.082-2.071z" fill="#F0F7FF"/><path fill-rule="evenodd" clip-rule="evenodd" d="M20.504 12.5l-4.078 4.118V20.5l6-6.059-1.922-1.941z" fill="#DFE7F4"/></svg>