<svg width="53" height="53" fill="none" xmlns="http://www.w3.org/2000/svg"><mask id="a" maskUnits="userSpaceOnUse" x="0" y="0" width="53" height="53"><path fill-rule="evenodd" clip-rule="evenodd" d="M0 0h53v53H0V0z" fill="#fff"/></mask><g mask="url(#a)"><path fill-rule="evenodd" clip-rule="evenodd" d="M8.167 0h36.666A8.167 8.167 0 0153 8.167v36.666A8.167 8.167 0 0144.833 53H8.167A8.167 8.167 0 010 44.833V8.167A8.167 8.167 0 018.167 0z" fill="#4C73A4"/></g><path fill-rule="evenodd" clip-rule="evenodd" d="M25.103 37.908h2.212s.667-.077 1.009-.46c.314-.352.304-1.012.304-1.012s-.043-3.093 1.334-3.549c1.358-.449 3.1 2.99 4.949 4.312 1.397 1 2.459.78 2.459.78l4.941-.071s2.585-.166 1.36-2.285c-.101-.173-.715-1.566-3.675-4.43-3.098-2.997-2.683-2.512 1.05-7.697 2.272-3.157 3.18-5.084 2.897-5.91-.27-.787-1.943-.579-1.943-.579l-5.563.036s-.413-.058-.718.132c-.3.187-.492.622-.492.622s-.88 2.443-2.054 4.521c-2.478 4.385-3.468 4.617-3.873 4.344-.942-.634-.707-2.549-.707-3.909 0-4.249.619-6.02-1.204-6.479-.605-.152-1.05-.253-2.597-.27-1.985-.02-3.665.007-4.616.493-.633.323-1.122 1.043-.824 1.084.368.051 1.2.234 1.642.86.57.809.55 2.624.55 2.624s.328 5.002-.765 5.623c-.75.426-1.778-.444-3.987-4.421-1.132-2.038-1.986-4.29-1.986-4.29s-.165-.421-.458-.646c-.357-.273-.855-.36-.855-.36l-5.287.036s-.793.023-1.085.383c-.26.32-.02.982-.02.982s4.138 10.092 8.825 15.178c4.298 4.664 9.177 4.358 9.177 4.358z" fill="#FEFEFE"/></svg>