<svg width="53" height="53" fill="none" xmlns="http://www.w3.org/2000/svg"><mask id="a" maskUnits="userSpaceOnUse" x="0" y="0" width="53" height="53"><path fill-rule="evenodd" clip-rule="evenodd" d="M0 0h53v53H0V0z" fill="#fff"/></mask><g mask="url(#a)"><path fill-rule="evenodd" clip-rule="evenodd" d="M50.074 0H2.924A2.925 2.925 0 000 2.926v47.15A2.925 2.925 0 002.925 53h47.15A2.925 2.925 0 0053 50.076V2.924A2.925 2.925 0 0050.074 0z" fill="#4267B2"/></g><mask id="b" maskUnits="userSpaceOnUse" x="21" y="8" width="25" height="45"><path fill-rule="evenodd" clip-rule="evenodd" d="M21 8.033h24.945v44.498H21V8.033z" fill="#fff"/></mask><g mask="url(#b)"><path fill-rule="evenodd" clip-rule="evenodd" d="M37.206 52.531v-20.27h7.384l1.106-7.933h-8.49v-5.053c0-2.292.687-3.853 4.238-3.853h4.5V8.345c-.782-.096-3.469-.312-6.595-.312-6.526 0-10.993 3.686-10.993 10.456v5.84H21v7.933h7.356v20.27h8.85z" fill="#fff"/></g></svg>