<svg width="107" height="107" fill="none" xmlns="http://www.w3.org/2000/svg"><path d="M70.872 51.822L48.32 35.518a2.732 2.732 0 00-2.834-.223A2.696 2.696 0 0044 37.699v32.598c0 1.02.571 1.952 1.486 2.412.386.194.81.291 1.236.291a2.71 2.71 0 001.597-.525l22.553-16.29A2.705 2.705 0 0072 54.004a2.68 2.68 0 00-1.128-2.182z" fill="#797C88"/><path fill-rule="evenodd" clip-rule="evenodd" d="M0 53.509C0 23.952 23.949 0 53.502 0 83.048 0 107.004 23.952 107 53.509 107 83.052 83.048 107 53.502 107 23.949 107 0 83.055 0 53.509zm8.937 0c0 24.618 19.954 44.563 44.565 44.563 24.607 0 44.56-19.945 44.557-44.563 0-24.61-19.95-44.578-44.557-44.578-24.611 0-44.565 19.97-44.565 44.578z" fill="#797C88"/></svg>